<?xml version="1.0" encoding="UTF-8" standalone="no"?>
<svg
   version="1.1"
   viewBox="0 0 357 90"
   id="svg51"
   sodipodi:docname="Logo-simple.svg"
   width="357"
   height="90"
   inkscape:version="1.4.3 (0d15f75, 2025-12-25)"
   xmlns:inkscape="http://www.inkscape.org/namespaces/inkscape"
   xmlns:sodipodi="http://sodipodi.sourceforge.net/DTD/sodipodi-0.dtd"
   xmlns="http://www.w3.org/2000/svg"
   xmlns:svg="http://www.w3.org/2000/svg">
  <defs
     id="defs51" />
  <sodipodi:namedview
     id="namedview51"
     pagecolor="#ffffff"
     bordercolor="#000000"
     borderopacity="0.25"
     inkscape:showpageshadow="2"
     inkscape:pageopacity="0.0"
     inkscape:pagecheckerboard="0"
     inkscape:deskcolor="#d1d1d1"
     showguides="true"
     inkscape:zoom="3.5258621"
     inkscape:cx="183.07579"
     inkscape:cy="35.168704"
     inkscape:window-width="2560"
     inkscape:window-height="1494"
     inkscape:window-x="-11"
     inkscape:window-y="-11"
     inkscape:window-maximized="1"
     inkscape:current-layer="svg51">
    <sodipodi:guide
       position="-30.630807,228.40587"
       orientation="0,-1"
       id="guide51"
       inkscape:locked="false" />
  </sodipodi:namedview>
  <rect
     style="fill:#262221;fill-opacity:1;stroke:#262221;stroke-opacity:1"
     id="rect51"
     width="355.94131"
     height="89.907089"
     x="0.28361857"
     y="0.28361857"
     rx="12.5"
     ry="12.5" />
  <g
     stroke-width="2"
     fill="none"
     stroke-linecap="butt"
     id="g32"
     transform="translate(4.5378973,4.5378973)">
    <path
       stroke="#7d6b49"
       vector-effect="non-scaling-stroke"
       d="M 39.93,16.06 A 0.76,0.75 0 0 0 39.17,15.31 H 30.6 a 1.2,1.18 71.2 0 1 -0.95,-0.48 q -1.78,-2.34 -4.62,-2.01 c -5.3,0.63 -4,8.77 2.62,6.96 a 1.48,1.45 -81 0 0 0.82,-0.61 l 1.03,-1.6 a 0.65,0.64 15.9 0 1 0.55,-0.3 h 9.03 a 0.85,0.85 0 0 0 0.85,-0.85 v -0.36"
       id="path1" />
    <path
       stroke="#776543"
       vector-effect="non-scaling-stroke"
       d="m 303.06,68.17 a 0.34,0.34 0 0 0 0.32,-0.45 q -0.76,-2.22 -2.44,-4.43 -5.58,-7.31 -10.19,-14.6 a 1.1,1.09 -26.3 0 1 0.55,-1.61 q 9.44,-3.46 10.44,-13.36 c 0.82,-8.18 -1.46,-14.96 -8.69,-18.74 q -3.57,-1.87 -12.82,-2.18 -12.42,-0.41 -22.01,-0.37 a 0.46,0.46 0 0 0 -0.46,0.46 v 8.83 a 0.96,0.96 0 0 0 1,0.96 q 13.52,-0.58 23.22,-0.51 4.22,0.03 7.69,3.78 c 3.25,3.54 1.37,9.92 -2.2,12.55 q -1.6,1.19 -5.91,1.39 -12.12,0.55 -21.79,0.13 a 0.94,0.94 0 0 0 -0.98,0.94 v 6.7 a 1.1,1.1 0 0 0 1.07,1.1 l 16.91,0.53 a 3.18,3.16 -28.4 0 1 1.59,0.47 q 0.89,0.53 2.06,2.16 6.71,9.39 10.34,15.31 a 1.99,1.98 -15.8 0 0 1.69,0.94 h 10.61"
       id="path2" />
    <path
       stroke="#776543"
       vector-effect="non-scaling-stroke"
       d="m 79.77,39.41 q 0.44,-0.46 2.52,-2.09 c 3.62,-2.84 4.8,-7.66 4.16,-12.09 -1.28,-8.91 -8.9,-12.59 -17.19,-12.46 q -21.61,0.32 -23.8,0.11 a 0.72,0.71 2.9 0 0 -0.79,0.71 v 6.91 a 1.16,1.15 0.5 0 0 1.14,1.15 l 23.5,0.4 a 4.66,4.54 53.8 0 1 1.37,0.23 q 4.94,1.7 4.98,6.46 c 0.04,4.65 -3.11,6.45 -7.51,6.65 Q 64.03,35.58 63.5,35.54 55.21,34.83 45.41,35.3 A 0.7,0.7 0 0 0 44.74,36 v 31.26 a 0.62,0.62 0 0 0 0.62,0.62 q 20.16,0.06 26.14,0.19 c 6.77,0.15 14.14,-2.63 15.86,-9.95 Q 88,55.4 88.41,51.1 a 0.52,0.51 -86.9 0 1 0.51,-0.46 h 31.04 a 1.2,1.19 65.5 0 1 0.79,0.3 l 1.73,1.55 a 0.94,0.93 58.8 0 0 0.85,0.21 c 7.5,-1.94 1.22,-9.45 -1.72,-5.63 q -0.92,1.19 -2.35,1.17 -18.43,-0.32 -29.82,-0.13 A 1.05,1.05 0 0 1 88.46,47.48 Q 86,41.96 80.05,40.4 a 0.6,0.59 29.4 0 1 -0.28,-0.99"
       id="path3" />
    <path
       stroke="#7d6b49"
       vector-effect="non-scaling-stroke"
       d="m 108.0974,13.5218 a 0.68,0.68 0 0 0 -0.6823,-0.6776 l -9.12,0.0318 a 0.68,0.68 0 0 0 -0.6776,0.6824 l 0.1051,30.0998 a 0.68,0.68 0 0 0 0.6823,0.6776 l 9.12,-0.0318 a 0.68,0.68 0 0 0 0.6776,-0.6824 l -0.1051,-30.0998"
       id="path4" />
    <path
       stroke="#776543"
       vector-effect="non-scaling-stroke"
       d="m 97.85,54.69 c 2.93,6.18 8.77,12.58 15.92,13.79 6.84,1.16 14.27,0.84 20.11,-2.37 7.48,-4.1 9.59,-12.08 10,-20.86 q 0.56,-12.03 0.08,-31.18 a 1.21,1.2 -0.7 0 0 -1.21,-1.17 h -8.25 a 1.08,1.08 0 0 0 -1.08,1.06 q -0.21,11.39 0.13,27.29 c 0.14,6.33 -0.38,14.41 -7.37,16.79 q -9.73,3.32 -16.02,-3.47 a 2.54,2.53 -21.5 0 0 -1.85,-0.8 h -9.88 a 0.64,0.64 0 0 0 -0.58,0.92"
       id="path5" />
    <path
       stroke="#7d6b49"
       vector-effect="non-scaling-stroke"
       d="m 174.29,68.13 q 4.34,0.01 4.47,-0.02 a 0.92,0.92 0 0 0 0.71,-0.89 l 0.08,-43.9 a 0.86,0.85 -89.7 0 1 0.85,-0.85 h 15.99 a 1.25,1.25 0 0 0 1.25,-1.25 v -7.3 a 1.11,1.11 0 0 0 -1.11,-1.11 q -11.23,0.01 -22.05,0.07 -10.81,-0.13 -22.04,-0.22 a 1.11,1.11 0 0 0 -1.12,1.1 l -0.05,7.3 a 1.25,1.25 0 0 0 1.24,1.26 l 15.99,0.11 a 0.86,0.85 -89.9 0 1 0.85,0.85 l -0.23,43.9 a 0.92,0.92 0 0 0 0.71,0.9 q 0.12,0.03 4.46,0.05"
       id="path6" />
    <path
       stroke="#7d6b49"
       vector-effect="non-scaling-stroke"
       d="m 226.6,29.95 q 2.33,0 4.79,0.13 a 0.74,0.73 -88.4 0 0 0.77,-0.74 V 22.9 a 0.52,0.51 0 0 1 0.52,-0.51 h 16.62 a 0.88,0.88 0 0 0 0.88,-0.88 v -7.89 a 0.82,0.82 0 0 0 -0.82,-0.82 q -11.15,0.09 -22.78,0.09 -11.64,0.03 -22.78,-0.02 a 0.82,0.82 0 0 0 -0.82,0.82 l 0.02,7.89 a 0.88,0.88 0 0 0 0.89,0.88 l 16.62,-0.05 a 0.52,0.51 -0.2 0 1 0.52,0.51 l 0.02,6.44 a 0.74,0.73 88.2 0 0 0.77,0.73 q 2.46,-0.14 4.78,-0.14"
       id="path7" />
    <path
       stroke="#7d6b49"
       vector-effect="non-scaling-stroke"
       d="m 301.54,16.2 v 0.33 a 1.27,1.26 0 0 0 1.27,1.26 h 16.46 a 1.12,1.11 66 0 1 0.75,0.29 q 0.93,0.81 1.83,1.48 a 2.84,2.83 47.8 0 0 3.18,0.16 c 2.43,-1.49 3.18,-6.2 -0.23,-6.86 q -3.56,-0.68 -4.74,1.86 a 1.12,1.11 -77.5 0 1 -1.01,0.65 h -16.67 a 0.84,0.83 0 0 0 -0.84,0.83"
       id="path8" />
    <path
       stroke="#7d6b49"
       vector-effect="non-scaling-stroke"
       d="m 19.98,25.89 c -1.34,-4.12 -8.59,0.08 -4.81,3.84 2.53,2.52 4.66,-0.62 6.89,-0.67 5.02,-0.13 10.74,-0.65 14.93,-0.59 q 14.28,0.17 20.22,-0.13 a 1.16,1.15 -21.7 0 1 0.94,0.4 q 0.27,0.31 0.87,1.09 a 2.72,2.7 -30.5 0 0 3.25,0.83 c 5.94,-2.59 -1.64,-7.91 -3.24,-4.81 q -0.4,0.77 -0.69,0.98 a 1.23,1.21 -62.4 0 1 -0.71,0.23 L 21.37,26.91 a 1.48,1.48 0 0 1 -1.39,-1.02"
       id="path9" />
    <path
       stroke="#776543"
       vector-effect="non-scaling-stroke"
       d="m 307.1,28.39 h 20.16 a 1.03,1.01 -26.3 0 1 0.61,0.2 l 1.8,1.32 a 1.01,0.98 67.5 0 0 0.42,0.18 q 4.27,0.74 4.48,-3.45 a 2.16,2.05 -84.1 0 0 -1.71,-2.22 q -2.31,-0.38 -4.04,1.5 a 2.19,2.18 -68.4 0 1 -1.6,0.7 h -20.03 a 0.77,0.76 -85.1 0 0 -0.75,0.64 l -0.05,0.29 a 0.73,0.72 -85.5 0 0 0.71,0.84"
       id="path10" />
    <path
       stroke="#776543"
       vector-effect="non-scaling-stroke"
       d="m 256.99,52.41 q -1.66,-3.37 -6.23,-7.39 -2.59,-2.28 -12.02,-11.26 a 0.39,0.37 -21.7 0 0 -0.27,-0.11 h -47.5 a 2.26,2.19 -27.6 0 1 -1.22,-0.36 q -0.75,-0.5 -1.95,-1.5 a 2.37,2.22 43.2 0 0 -3.03,0 q -2.87,2.65 -0.27,5.42 a 2.39,2.37 -39.5 0 0 3.13,0.29 c 1.68,-1.22 3.15,-1.62 5.3,-1.67 q 18.01,-0.36 43.03,-0.09 a 2.69,2.62 -22.8 0 1 1.73,0.68 l 18.51,16.59 a 0.51,0.5 -82.2 0 0 0.79,-0.6"
       id="path11" />
    <path
       stroke="#776543"
       vector-effect="non-scaling-stroke"
       d="m 39.0845,35.6643 a 2.12,2.12 0 0 0 -2.2245,-2.01 l -1.538,0.0779 a 2.12,2.12 0 0 0 -2.0101,2.2246 l 0.0436,0.8589 a 2.12,2.12 0 0 0 2.2245,2.01 l 1.538,-0.0779 a 2.12,2.12 0 0 0 2.0101,-2.2246 l -0.0436,-0.8589"
       id="path12" />
    <path
       stroke="#7d6b49"
       vector-effect="non-scaling-stroke"
       d="m 313.3916,36.8548 a 1,1 0 0 0 -0.0888,-1.4114 l -2.0103,-1.7723 a 1,1 0 0 0 -1.4114,0.0888 l -1.7327,1.9653 a 1,1 0 0 0 0.0888,1.4114 l 2.0103,1.7723 a 1,1 0 0 0 1.4114,-0.0888 l 1.7327,-1.9653"
       id="path13" />
    <path
       stroke="#776543"
       vector-effect="non-scaling-stroke"
       d="m 231.8194,40.5279 a 0.89,0.89 0 0 0 -0.8853,-0.8946 l -8.8199,-0.0462 a 0.89,0.89 0 0 0 -0.8946,0.8853 l -0.139,26.5397 a 0.89,0.89 0 0 0 0.8853,0.8946 l 8.8199,0.0462 a 0.89,0.89 0 0 0 0.8946,-0.8853 l 0.139,-26.5397"
       id="path14" />
    <path
       stroke="#776543"
       vector-effect="non-scaling-stroke"
       d="m 303.35,45.07 q 0.04,1.36 1.64,1.34 2.01,-0.03 14.26,-0.58 a 1.53,1.5 61.9 0 1 0.96,0.3 q 0.52,0.39 0.91,0.92 c 2.13,2.85 7.37,1.12 7.29,-2.56 -0.09,-3.68 -5.41,-5.17 -7.4,-2.22 q -0.37,0.55 -0.87,0.96 a 1.53,1.5 -64.5 0 1 -0.94,0.35 q -12.26,0.02 -14.27,0.08 -1.61,0.06 -1.58,1.41"
       id="path15" />
    <path
       stroke="#776543"
       vector-effect="non-scaling-stroke"
       d="m 20.86,44.73 c -0.03,3.92 5.12,5.4 7.25,1.99 a 1.3,1.29 16.7 0 1 1.13,-0.6 c 5.2,0.12 10.4,0.5 10.97,-0.12 q 0.19,-0.21 0.2,-1.09 0.01,-0.88 -0.18,-1.09 C 39.67,43.19 34.47,43.47 29.26,43.5 a 1.3,1.29 -15.7 0 1 -1.12,-0.63 c -2.06,-3.44 -7.24,-2.06 -7.28,1.86"
       id="path16" />
    <path
       stroke="#776543"
       vector-effect="non-scaling-stroke"
       d="m 302.95,55.42 q 0,0.76 1.54,0.78 19.59,0.16 30.69,0.15 a 1.37,1.37 0 0 1 1.06,0.5 l 1.21,1.48 a 1.88,1.83 -10.2 0 0 0.85,0.58 c 2.98,0.97 5.1,-0.51 5.09,-3.61 0,-3.11 -2.14,-4.57 -5.11,-3.58 a 1.88,1.83 9.8 0 0 -0.85,0.58 l -1.2,1.49 a 1.37,1.37 0 0 1 -1.06,0.5 q -11.1,0.06 -30.68,0.34 -1.54,0.02 -1.54,0.79"
       id="path17" />
    <path
       stroke="#7d6b49"
       vector-effect="non-scaling-stroke"
       d="m 4.67,55.2 c 0.01,2.12 2.39,3.94 4.55,3.63 2.16,-0.3 2.39,-1.34 3.47,-2.48 a 1.25,1.21 20.6 0 1 0.87,-0.38 q 6.21,-0.04 25.95,0.07 0.8,0 0.79,-1 0,-1 -0.8,-0.98 -19.74,0.28 -25.95,0.3 A 1.25,1.21 -21.1 0 1 12.68,53.99 C 11.59,52.86 11.35,51.82 9.18,51.53 7.02,51.25 4.66,53.09 4.67,55.2"
       id="path18" />
    <path
       stroke="#776543"
       vector-effect="non-scaling-stroke"
       d="m 269.0428,54.0439 a 0.93,0.93 0 0 0 -0.9381,-0.9218 l -8.7596,0.0764 a 0.93,0.93 0 0 0 -0.9219,0.9381 l 0.114,13.0595 a 0.93,0.93 0 0 0 0.9381,0.9218 l 8.7596,-0.0764 a 0.93,0.93 0 0 0 0.9219,-0.9381 l -0.114,-13.0595"
       id="path19" />
    <path
       stroke="#776543"
       vector-effect="non-scaling-stroke"
       d="m 40.2,64.92 a 0.75,0.74 -2.3 0 0 -0.78,-0.71 l -8.45,0.34 a 1.19,1.16 68.9 0 1 -0.96,-0.44 q -1.84,-2.24 -4.63,-1.8 c -5.21,0.83 -3.6,8.81 2.86,6.76 a 1.46,1.43 -83.3 0 0 0.78,-0.63 l 0.95,-1.62 a 0.65,0.64 13.6 0 1 0.54,-0.32 l 8.9,-0.35 a 0.84,0.84 0 0 0 0.81,-0.87 L 40.2,64.92"
       id="path20" />
    <path
       stroke="#776543"
       vector-effect="non-scaling-stroke"
       d="m 308.15,65.77 a 1.04,1.04 0 0 0 1.04,1.04 h 10.56 a 0.87,0.84 -21.2 0 1 0.62,0.26 c 0.71,0.75 0.96,1.47 2,2.1 3.5,2.12 7.19,-1.22 5.49,-5.18 -1.02,-2.39 -5.12,-2.26 -6.67,-0.71 q -0.56,0.56 -1.04,1.02 a 1.76,1.73 -66.6 0 1 -1.21,0.49 h -10.08 a 0.71,0.71 0 0 0 -0.71,0.71 v 0.27"
       id="path21" />
    <path
       stroke="#806e42"
       vector-effect="non-scaling-stroke"
       d="m 27.85,16.56 a 1.76,1.76 0 0 0 -1.76,-1.76 1.76,1.76 0 0 0 -1.76,1.76 1.76,1.76 0 0 0 1.76,1.76 1.76,1.76 0 0 0 1.76,-1.76"
       id="path22" />
    <path
       stroke="#776543"
       vector-effect="non-scaling-stroke"
       d="m 55.58,45.8 0.1,12.16 a 0.68,0.68 0 0 0 0.69,0.67 L 71.33,58.5 a 6.96,6.45 -0.5 0 0 6.9,-6.51 v -0.62 a 6.96,6.45 -0.5 0 0 -7.02,-6.39 l -14.96,0.13 a 0.68,0.68 0 0 0 -0.67,0.69"
       id="path23" />
    <path
       stroke="#806e42"
       vector-effect="non-scaling-stroke"
       d="m 325.4411,16.0038 a 2.04,1.83 -11.2 0 0 -2.3565,-1.3989 2.04,1.83 -11.2 0 0 -1.6457,2.1913 2.04,1.83 -11.2 0 0 2.3565,1.3989 2.04,1.83 -11.2 0 0 1.6457,-2.1913"
       id="path24" />
    <path
       stroke="#806e42"
       vector-effect="non-scaling-stroke"
       d="m 18.6,27.56 a 1.18,1.18 0 0 0 -1.18,-1.18 1.18,1.18 0 0 0 -1.18,1.18 1.18,1.18 0 0 0 1.18,1.18 1.18,1.18 0 0 0 1.18,-1.18"
       id="path25" />
    <path
       stroke="#7a683b"
       vector-effect="non-scaling-stroke"
       d="m 332.71,27.42 a 1.57,1.57 0 0 0 -1.57,-1.57 1.57,1.57 0 0 0 -1.57,1.57 1.57,1.57 0 0 0 1.57,1.57 1.57,1.57 0 0 0 1.57,-1.57"
       id="path26" />
    <path
       stroke="#7a683b"
       vector-effect="non-scaling-stroke"
       d="m 326.06,44.34 a 1.93,1.93 0 0 0 -1.93,-1.93 1.93,1.93 0 0 0 -1.93,1.93 1.93,1.93 0 0 0 1.93,1.93 1.93,1.93 0 0 0 1.93,-1.93"
       id="path27" />
    <path
       stroke="#7a683b"
       vector-effect="non-scaling-stroke"
       d="m 26.53,44.89 a 1.86,1.86 0 0 0 -1.86,-1.86 1.86,1.86 0 0 0 -1.86,1.86 1.86,1.86 0 0 0 1.86,1.86 1.86,1.86 0 0 0 1.86,-1.86"
       id="path28" />
    <path
       stroke="#7a683b"
       vector-effect="non-scaling-stroke"
       d="m 341.64,55.33 a 1.93,1.93 0 0 0 -1.93,-1.93 1.93,1.93 0 0 0 -1.93,1.93 1.93,1.93 0 0 0 1.93,1.93 1.93,1.93 0 0 0 1.93,-1.93"
       id="path29" />
    <path
       stroke="#806e42"
       vector-effect="non-scaling-stroke"
       d="m 10.81,55.03 a 1.99,1.99 0 0 0 -1.99,-1.99 1.99,1.99 0 0 0 -1.99,1.99 1.99,1.99 0 0 0 1.99,1.99 1.99,1.99 0 0 0 1.99,-1.99"
       id="path30" />
    <path
       stroke="#7a683b"
       vector-effect="non-scaling-stroke"
       d="m 28.25,65.83 a 1.93,1.93 0 0 0 -1.93,-1.93 1.93,1.93 0 0 0 -1.93,1.93 1.93,1.93 0 0 0 1.93,1.93 1.93,1.93 0 0 0 1.93,-1.93"
       id="path31" />
    <path
       stroke="#7a683b"
       vector-effect="non-scaling-stroke"
       d="m 322.2483,65.5574 a 2.11,1.86 -166.5 0 0 1.6175,2.3012 2.11,1.86 -166.5 0 0 2.4859,-1.316 2.11,1.86 -166.5 0 0 -1.6175,-2.3012 2.11,1.86 -166.5 0 0 -2.4859,1.316"
       id="path32" />
  </g>
  <path
     fill="#262221"
     d="M 352.53789,4.5378973 V 86.537897 H 4.5378973 V 4.5378973 Z M 44.467896,20.597897 a 0.76,0.75 0 0 0 -0.76,-0.75 h -8.57 a 1.2,1.18 71.2 0 1 -0.95,-0.48 q -1.78,-2.34 -4.62,-2.01 c -5.3,0.63 -4,8.77 2.62,6.96 a 1.45,1.48 9 0 0 0.82,-0.61 l 1.03,-1.6 a 0.65,0.64 15.9 0 1 0.55,-0.3 h 9.03 a 0.85,0.85 0 0 0 0.85,-0.85 z m 263.129994,52.11 a 0.34,0.34 0 0 0 0.32,-0.45 q -0.76,-2.22 -2.44,-4.43 -5.58,-7.31 -10.19,-14.6 a 1.09,1.1 63.7 0 1 0.55,-1.61 q 9.44,-3.46 10.44,-13.36 c 0.82,-8.18 -1.46,-14.96 -8.69,-18.74 q -3.57,-1.87 -12.82,-2.18 -12.42,-0.41 -22.01,-0.37 a 0.46,0.46 0 0 0 -0.46,0.46 v 8.83 a 0.96,0.96 0 0 0 1,0.96 q 13.52,-0.58 23.22,-0.51 4.22,0.03 7.69,3.78 c 3.25,3.54 1.37,9.92 -2.2,12.55 q -1.6,1.19 -5.91,1.39 -12.12,0.55 -21.79,0.13 a 0.94,0.94 0 0 0 -0.98,0.94 v 6.7 a 1.1,1.1 0 0 0 1.07,1.1 l 16.91,0.53 a 3.16,3.18 61.6 0 1 1.59,0.47 q 0.89,0.53 2.06,2.16 6.71,9.39 10.34,15.31 a 1.98,1.99 74.2 0 0 1.69,0.94 z m -223.289994,-28.76 q 0.44,-0.46 2.52,-2.09 c 3.62,-2.84 4.8,-7.66 4.16,-12.09 -1.28,-8.91 -8.9,-12.59 -17.19,-12.46 q -21.61,0.32 -23.8,0.11 a 0.72,0.71 2.9 0 0 -0.79,0.71 v 6.91 a 1.16,1.15 0.5 0 0 1.14,1.15 l 23.5,0.4 a 4.66,4.54 53.8 0 1 1.37,0.23 q 4.94,1.7 4.98,6.46 c 0.04,4.65 -3.11,6.45 -7.51,6.65 q -4.12,0.19 -4.65,0.15 -8.29,-0.71 -18.09,-0.24 a 0.7,0.7 0 0 0 -0.67,0.7 v 31.26 a 0.62,0.62 0 0 0 0.62,0.62 q 20.16,0.06 26.14,0.19 c 6.77,0.15 14.14,-2.63 15.86,-9.95 q 0.64,-2.72 1.05,-7.02 a 0.51,0.52 3.1 0 1 0.51,-0.46 h 31.039994 a 1.2,1.19 65.5 0 1 0.79,0.3 l 1.73,1.55 a 0.94,0.93 58.8 0 0 0.85,0.21 c 7.5,-1.94 1.22,-9.45 -1.72,-5.63 q -0.92,1.19 -2.35,1.17 -18.43,-0.32 -29.819994,-0.13 a 1.05,1.05 0 0 1 -0.98,-0.63 q -2.46,-5.52 -8.41,-7.08 a 0.6,0.59 29.4 0 1 -0.28,-0.99 z m 28.327394,-25.8882 a 0.68,0.68 0 0 0 -0.6823,-0.6776 l -9.12,0.0318 a 0.68,0.68 0 0 0 -0.6776,0.6824 l 0.1051,30.0998 a 0.68,0.68 0 0 0 0.6823,0.6776 l 9.12,-0.0318 a 0.68,0.68 0 0 0 0.6776,-0.6824 z m -10.2474,41.1682 c 2.93,6.18 8.77,12.58 15.92,13.79 6.84,1.16 14.27,0.84 20.11,-2.37 7.48,-4.1 9.59,-12.08 10,-20.86 q 0.56,-12.03 0.08,-31.18 a 1.2,1.21 89.3 0 0 -1.21,-1.17 h -8.25 a 1.08,1.08 0 0 0 -1.08,1.06 q -0.21,11.39 0.13,27.29 c 0.14,6.33 -0.38,14.41 -7.37,16.79 q -9.73,3.32 -16.02,-3.47 a 2.53,2.54 68.5 0 0 -1.85,-0.8 h -9.88 a 0.64,0.64 0 0 0 -0.58,0.92 z m 76.44,13.44 q 4.34,0.01 4.47,-0.02 a 0.92,0.92 0 0 0 0.71,-0.89 l 0.08,-43.9 a 0.85,0.86 0.3 0 1 0.85,-0.85 h 15.99 a 1.25,1.25 0 0 0 1.25,-1.25 v -7.3 a 1.11,1.11 0 0 0 -1.11,-1.11 q -11.23,0.01 -22.05,0.07 -10.81,-0.13 -22.04,-0.22 a 1.11,1.11 0 0 0 -1.12,1.1 l -0.05,7.3 a 1.25,1.25 0 0 0 1.24,1.26 l 15.99,0.11 a 0.85,0.86 0.1 0 1 0.85,0.85 l -0.23,43.9 a 0.92,0.92 0 0 0 0.71,0.9 q 0.12,0.03 4.46,0.05 z m 52.31,-38.18 q 2.33,0 4.79,0.13 a 0.73,0.74 1.6 0 0 0.77,-0.74 v -6.44 a 0.52,0.51 0 0 1 0.52,-0.51 h 16.62 a 0.88,0.88 0 0 0 0.88,-0.88 v -7.89 a 0.82,0.82 0 0 0 -0.82,-0.82 q -11.15,0.09 -22.78,0.09 -11.64,0.03 -22.78,-0.02 a 0.82,0.82 0 0 0 -0.82,0.82 l 0.02,7.89 a 0.88,0.88 0 0 0 0.89,0.88 l 16.62,-0.05 a 0.51,0.52 89.8 0 1 0.52,0.51 l 0.02,6.44 a 0.74,0.73 88.2 0 0 0.77,0.73 q 2.46,-0.14 4.78,-0.14 z m 74.94,-13.75 v 0.33 a 1.27,1.26 0 0 0 1.27,1.26 h 16.46 a 1.12,1.11 66 0 1 0.75,0.29 q 0.93,0.81 1.83,1.48 a 2.84,2.83 47.8 0 0 3.18,0.16 c 2.43,-1.49 3.18,-6.2 -0.23,-6.86 q -3.56,-0.68 -4.74,1.86 a 1.11,1.12 12.5 0 1 -1.01,0.65 h -16.67 a 0.84,0.83 0 0 0 -0.84,0.83 z m -281.559994,9.69 c -1.34,-4.12 -8.59,0.08 -4.81,3.84 2.53,2.52 4.66,-0.62 6.89,-0.67 5.02,-0.13 10.74,-0.65 14.93,-0.59 q 14.28,0.17 20.22,-0.13 a 1.15,1.16 68.3 0 1 0.94,0.4 q 0.27,0.31 0.87,1.09 a 2.7,2.72 59.5 0 0 3.25,0.83 c 5.94,-2.59 -1.64,-7.91 -3.24,-4.81 q -0.4,0.77 -0.69,0.98 a 1.21,1.23 27.6 0 1 -0.71,0.23 l -36.26,-0.15 a 1.48,1.48 0 0 1 -1.39,-1.02 z m 287.119994,2.5 h 20.16 a 1.01,1.03 63.7 0 1 0.61,0.2 l 1.8,1.32 a 1.01,0.98 67.5 0 0 0.42,0.18 q 4.27,0.74 4.48,-3.45 a 2.05,2.16 5.9 0 0 -1.71,-2.22 q -2.31,-0.38 -4.04,1.5 a 2.18,2.19 21.6 0 1 -1.6,0.7 h -20.03 a 0.76,0.77 4.9 0 0 -0.75,0.64 l -0.05,0.29 a 0.72,0.73 4.5 0 0 0.71,0.84 z m -50.11,24.02 q -1.66,-3.37 -6.23,-7.39 -2.59,-2.28 -12.02,-11.26 a 0.37,0.39 68.3 0 0 -0.27,-0.11 h -47.5 a 2.19,2.26 62.4 0 1 -1.22,-0.36 q -0.75,-0.5 -1.95,-1.5 a 2.37,2.22 43.2 0 0 -3.03,0 q -2.87,2.65 -0.27,5.42 a 2.37,2.39 50.5 0 0 3.13,0.29 c 1.68,-1.22 3.15,-1.62 5.3,-1.67 q 18.01,-0.36 43.03,-0.09 a 2.62,2.69 67.2 0 1 1.73,0.68 l 18.51,16.59 a 0.5,0.51 7.8 0 0 0.79,-0.6 z M 43.622396,40.202197 a 2.12,2.12 0 0 0 -2.2245,-2.01 l -1.538,0.0779 a 2.12,2.12 0 0 0 -2.0101,2.2246 l 0.0436,0.8589 a 2.12,2.12 0 0 0 2.2245,2.01 l 1.538,-0.0779 a 2.12,2.12 0 0 0 2.0101,-2.2246 z m 274.307094,1.1905 a 1,1 0 0 0 -0.0888,-1.4114 l -2.0103,-1.7723 a 1,1 0 0 0 -1.4114,0.0888 l -1.7327,1.9653 a 1,1 0 0 0 0.0888,1.4114 l 2.0103,1.7723 a 1,1 0 0 0 1.4114,-0.0888 z m -81.5722,3.6731 a 0.89,0.89 0 0 0 -0.8853,-0.8946 l -8.8199,-0.0462 a 0.89,0.89 0 0 0 -0.8946,0.8853 l -0.139,26.5397 a 0.89,0.89 0 0 0 0.8853,0.8946 l 8.8199,0.0462 a 0.89,0.89 0 0 0 0.8946,-0.8853 z m 71.5306,4.5421 q 0.04,1.36 1.64,1.34 2.01,-0.03 14.26,-0.58 a 1.53,1.5 61.9 0 1 0.96,0.3 q 0.52,0.39 0.91,0.92 c 2.13,2.85 7.37,1.12 7.29,-2.56 -0.09,-3.68 -5.41,-5.17 -7.4,-2.22 q -0.37,0.55 -0.87,0.96 a 1.5,1.53 25.5 0 1 -0.94,0.35 q -12.26,0.02 -14.27,0.08 -1.61,0.06 -1.58,1.41 z m -282.489994,-0.34 c -0.03,3.92 5.12,5.4 7.25,1.99 a 1.3,1.29 16.7 0 1 1.13,-0.6 c 5.2,0.12 10.4,0.5 10.97,-0.12 q 0.19,-0.21 0.2,-1.09 0.01,-0.88 -0.18,-1.09 c -0.56,-0.63 -5.76,-0.35 -10.97,-0.32 a 1.29,1.3 74.3 0 1 -1.12,-0.63 c -2.06,-3.44 -7.24,-2.06 -7.28,1.86 z m 282.089994,10.69 q 0,0.76 1.54,0.78 19.59,0.16 30.69,0.15 a 1.37,1.37 0 0 1 1.06,0.5 l 1.21,1.48 a 1.83,1.88 79.8 0 0 0.85,0.58 c 2.98,0.97 5.1,-0.51 5.09,-3.61 0,-3.11 -2.14,-4.57 -5.11,-3.58 a 1.88,1.83 9.8 0 0 -0.85,0.58 l -1.2,1.49 a 1.37,1.37 0 0 1 -1.06,0.5 q -11.1,0.06 -30.68,0.34 -1.54,0.02 -1.54,0.79 z m -298.2799928,-0.22 c 0.01,2.12 2.3899988,3.94 4.5499988,3.63 2.16,-0.3 2.39,-1.34 3.47,-2.48 a 1.25,1.21 20.6 0 1 0.87,-0.38 q 6.21,-0.04 25.95,0.07 0.8,0 0.79,-1 0,-1 -0.8,-0.98 -19.74,0.28 -25.95,0.3 a 1.21,1.25 68.9 0 1 -0.87,-0.37 c -1.09,-1.13 -1.33,-2.17 -3.5,-2.46 -2.16,-0.28 -4.5199988,1.56 -4.5099988,3.67 z m 264.3727928,-1.1561 a 0.93,0.93 0 0 0 -0.9381,-0.9218 l -8.7596,0.0764 a 0.93,0.93 0 0 0 -0.9219,0.9381 l 0.114,13.0595 a 0.93,0.93 0 0 0 0.9381,0.9218 l 8.7596,-0.0764 a 0.93,0.93 0 0 0 0.9219,-0.9381 z m -228.842794,10.8761 a 0.74,0.75 87.7 0 0 -0.78,-0.71 l -8.45,0.34 a 1.19,1.16 68.9 0 1 -0.96,-0.44 q -1.84,-2.24 -4.63,-1.8 c -5.21,0.83 -3.6,8.81 2.86,6.76 a 1.43,1.46 6.7 0 0 0.78,-0.63 l 0.95,-1.62 a 0.65,0.64 13.6 0 1 0.54,-0.32 l 8.9,-0.35 a 0.84,0.84 0 0 0 0.81,-0.87 z m 267.949994,0.85 a 1.04,1.04 0 0 0 1.04,1.04 h 10.56 a 0.84,0.87 68.8 0 1 0.62,0.26 c 0.71,0.75 0.96,1.47 2,2.1 3.5,2.12 7.19,-1.22 5.49,-5.18 -1.02,-2.39 -5.12,-2.26 -6.67,-0.71 q -0.56,0.56 -1.04,1.02 a 1.73,1.76 23.4 0 1 -1.21,0.49 h -10.08 a 0.71,0.71 0 0 0 -0.71,0.71 z"
     id="path33" />
  <path
     fill="#d4b471"
     d="m 44.467896,20.597897 v 0.36 a 0.85,0.85 0 0 1 -0.85,0.85 h -9.03 a 0.65,0.64 15.9 0 0 -0.55,0.3 l -1.03,1.6 a 1.45,1.48 9 0 1 -0.82,0.61 c -6.62,1.81 -7.92,-6.33 -2.62,-6.96 q 2.84,-0.33 4.62,2.01 a 1.2,1.18 71.2 0 0 0.95,0.48 h 8.57 a 0.76,0.75 0 0 1 0.76,0.75 z m -12.08,0.5 a 1.76,1.76 0 0 0 -1.76,-1.76 1.76,1.76 0 0 0 -1.76,1.76 1.76,1.76 0 0 0 1.76,1.76 1.76,1.76 0 0 0 1.76,-1.76 z"
     id="path34" />
  <path
     fill="#c8a764"
     d="m 307.59789,72.707897 h -10.61 a 1.98,1.99 74.2 0 1 -1.69,-0.94 q -3.63,-5.92 -10.34,-15.31 -1.17,-1.63 -2.06,-2.16 a 3.16,3.18 61.6 0 0 -1.59,-0.47 l -16.91,-0.53 a 1.1,1.1 0 0 1 -1.07,-1.1 v -6.7 a 0.94,0.94 0 0 1 0.98,-0.94 q 9.67,0.42 21.79,-0.13 4.31,-0.2 5.91,-1.39 c 3.57,-2.63 5.45,-9.01 2.2,-12.55 q -3.47,-3.75 -7.69,-3.78 -9.7,-0.07 -23.22,0.51 a 0.96,0.96 0 0 1 -1,-0.96 v -8.83 a 0.46,0.46 0 0 1 0.46,-0.46 q 9.59,-0.04 22.01,0.37 9.25,0.31 12.82,2.18 c 7.23,3.78 9.51,10.56 8.69,18.74 q -1,9.9 -10.44,13.36 a 1.09,1.1 63.7 0 0 -0.55,1.61 q 4.61,7.29 10.19,14.6 1.68,2.21 2.44,4.43 a 0.34,0.34 0 0 1 -0.32,0.45 z"
     id="path35" />
  <path
     fill="#c8a764"
     d="m 84.307896,43.947897 a 0.6,0.59 29.4 0 0 0.28,0.99 q 5.95,1.56 8.41,7.08 a 1.05,1.05 0 0 0 0.98,0.63 q 11.389994,-0.19 29.819994,0.13 1.43,0.02 2.35,-1.17 c 2.94,-3.82 9.22,3.69 1.72,5.63 a 0.94,0.93 58.8 0 1 -0.85,-0.21 l -1.73,-1.55 a 1.2,1.19 65.5 0 0 -0.79,-0.3 H 93.457896 a 0.51,0.52 3.1 0 0 -0.51,0.46 q -0.41,4.3 -1.05,7.02 c -1.72,7.32 -9.09,10.1 -15.86,9.95 q -5.98,-0.13 -26.14,-0.19 a 0.62,0.62 0 0 1 -0.62,-0.62 v -31.26 a 0.7,0.7 0 0 1 0.67,-0.7 q 9.8,-0.47 18.09,0.24 0.53,0.04 4.65,-0.15 c 4.4,-0.2 7.55,-2 7.51,-6.65 q -0.04,-4.76 -4.98,-6.46 a 4.66,4.54 53.8 0 0 -1.37,-0.23 l -23.5,-0.4 a 1.16,1.15 0.5 0 1 -1.14,-1.15 v -6.91 a 0.72,0.71 2.9 0 1 0.79,-0.71 q 2.19,0.21 23.8,-0.11 c 8.29,-0.13 15.91,3.55 17.19,12.46 0.64,4.43 -0.54,9.25 -4.16,12.09 q -2.08,1.63 -2.52,2.09 z m -24.19,6.39 0.1,12.16 a 0.68,0.68 0 0 0 0.69,0.67 l 14.96,-0.13 a 6.45,6.96 89.5 0 0 6.9,-6.51 v -0.62 a 6.45,6.96 89.5 0 0 -7.02,-6.39 l -14.96,0.13 a 0.68,0.68 0 0 0 -0.67,0.69 z"
     id="path36" />
  <rect
     fill="#d4b471"
     x="102.09161"
     y="17.77276"
     transform="rotate(-0.2)"
     width="10.48"
     height="31.459999"
     rx="0.68000001"
     id="rect36" />
  <path
     fill="#c8a764"
     d="m 102.38789,59.227897 a 0.64,0.64 0 0 1 0.58,-0.92 h 9.88 a 2.53,2.54 68.5 0 1 1.85,0.8 q 6.29,6.79 16.02,3.47 c 6.99,-2.38 7.51,-10.46 7.37,-16.79 q -0.34,-15.9 -0.13,-27.29 a 1.08,1.08 0 0 1 1.08,-1.06 h 8.25 a 1.2,1.21 89.3 0 1 1.21,1.17 q 0.48,19.15 -0.08,31.18 c -0.41,8.78 -2.52,16.76 -10,20.86 -5.84,3.21 -13.27,3.53 -20.11,2.37 -7.15,-1.21 -12.99,-7.61 -15.92,-13.79 z"
     id="path37" />
  <path
     fill="#d4b471"
     d="m 179.01789,17.417897 q 10.82,-0.06 22.05,-0.07 a 1.11,1.11 0 0 1 1.11,1.11 v 7.3 a 1.25,1.25 0 0 1 -1.25,1.25 h -15.99 a 0.85,0.86 0.3 0 0 -0.85,0.85 l -0.08,43.9 a 0.92,0.92 0 0 1 -0.71,0.89 q -0.13,0.03 -4.47,0.02 -4.34,-0.02 -4.46,-0.05 a 0.92,0.92 0 0 1 -0.71,-0.9 l 0.23,-43.9 a 0.85,0.86 0.1 0 0 -0.85,-0.85 l -15.99,-0.11 a 1.25,1.25 0 0 1 -1.24,-1.26 l 0.05,-7.3 a 1.11,1.11 0 0 1 1.12,-1.1 q 11.23,0.09 22.04,0.22 z"
     id="path38" />
  <path
     fill="#d4b471"
     d="m 231.11789,17.427897 q 11.63,0 22.78,-0.09 a 0.82,0.82 0 0 1 0.82,0.82 v 7.89 a 0.88,0.88 0 0 1 -0.88,0.88 h -16.62 a 0.52,0.51 0 0 0 -0.52,0.51 v 6.44 a 0.73,0.74 1.6 0 1 -0.77,0.74 q -2.46,-0.13 -4.79,-0.13 -2.32,0 -4.78,0.14 a 0.74,0.73 88.2 0 1 -0.77,-0.73 l -0.02,-6.44 a 0.51,0.52 89.8 0 0 -0.52,-0.51 l -16.62,0.05 a 0.88,0.88 0 0 1 -0.89,-0.88 l -0.02,-7.89 a 0.82,0.82 0 0 1 0.82,-0.82 q 11.14,0.05 22.78,0.02 z"
     id="path39" />
  <path
     fill="#d4b471"
     d="m 306.91789,19.907897 h 16.67 a 1.11,1.12 12.5 0 0 1.01,-0.65 q 1.18,-2.54 4.74,-1.86 c 3.41,0.66 2.66,5.37 0.23,6.86 a 2.84,2.83 47.8 0 1 -3.18,-0.16 q -0.9,-0.67 -1.83,-1.48 a 1.12,1.11 66 0 0 -0.75,-0.29 h -16.46 a 1.27,1.26 0 0 1 -1.27,-1.26 v -0.33 a 0.84,0.83 0 0 1 0.84,-0.83 z m 23.0611,0.6338 a 1.83,2.04 78.8 0 0 -2.3565,-1.3989 1.83,2.04 78.8 0 0 -1.6457,2.1913 1.83,2.04 78.8 0 0 2.3565,1.3989 1.83,2.04 78.8 0 0 1.6457,-2.1913 z"
     id="path40" />
  <ellipse
     fill="#2c2812"
     cx="317.66473"
     cy="84.243706"
     transform="rotate(-11.2)"
     rx="2.04"
     ry="1.83"
     id="ellipse40" />
  <circle
     fill="#2c2812"
     cx="30.627897"
     cy="21.097897"
     r="1.76"
     id="circle40" />
  <path
     fill="#d4b471"
     d="m 24.517896,30.427897 a 1.48,1.48 0 0 0 1.39,1.02 l 36.26,0.15 a 1.21,1.23 27.6 0 0 0.71,-0.23 q 0.29,-0.21 0.69,-0.98 c 1.6,-3.1 9.18,2.22 3.24,4.81 a 2.7,2.72 59.5 0 1 -3.25,-0.83 q -0.6,-0.78 -0.87,-1.09 a 1.15,1.16 68.3 0 0 -0.94,-0.4 q -5.94,0.3 -20.22,0.13 c -4.19,-0.06 -9.91,0.46 -14.93,0.59 -2.23,0.05 -4.36,3.19 -6.89,0.67 -3.78,-3.76 3.47,-7.96 4.81,-3.84 z m -1.38,1.67 a 1.18,1.18 0 0 0 -1.18,-1.18 1.18,1.18 0 0 0 -1.18,1.18 1.18,1.18 0 0 0 1.18,1.18 1.18,1.18 0 0 0 1.18,-1.18 z"
     id="path41" />
  <path
     fill="#c8a764"
     d="m 311.63789,32.927897 a 0.72,0.73 4.5 0 1 -0.71,-0.84 l 0.05,-0.29 a 0.76,0.77 4.9 0 1 0.75,-0.64 h 20.03 a 2.18,2.19 21.6 0 0 1.6,-0.7 q 1.73,-1.88 4.04,-1.5 a 2.05,2.16 5.9 0 1 1.71,2.22 q -0.21,4.19 -4.48,3.45 a 1.01,0.98 67.5 0 1 -0.42,-0.18 l -1.8,-1.32 a 1.01,1.03 63.7 0 0 -0.61,-0.2 z m 25.61,-0.97 a 1.57,1.57 0 0 0 -1.57,-1.57 1.57,1.57 0 0 0 -1.57,1.57 1.57,1.57 0 0 0 1.57,1.57 1.57,1.57 0 0 0 1.57,-1.57 z"
     id="path42" />
  <circle
     fill="#2c2812"
     cx="335.67789"
     cy="31.957897"
     r="1.5700001"
     id="circle42" />
  <circle
     fill="#2c2812"
     cx="21.957897"
     cy="32.097897"
     r="1.1799999"
     id="circle43" />
  <path
     fill="#c8a764"
     d="m 261.52789,56.947897 a 0.5,0.51 7.8 0 1 -0.79,0.6 l -18.51,-16.59 a 2.62,2.69 67.2 0 0 -1.73,-0.68 q -25.02,-0.27 -43.03,0.09 c -2.15,0.05 -3.62,0.45 -5.3,1.67 a 2.37,2.39 50.5 0 1 -3.13,-0.29 q -2.6,-2.77 0.27,-5.42 a 2.37,2.22 43.2 0 1 3.03,0 q 1.2,1 1.95,1.5 a 2.19,2.26 62.4 0 0 1.22,0.36 h 47.5 a 0.37,0.39 68.3 0 1 0.27,0.11 q 9.43,8.98 12.02,11.26 4.57,4.02 6.23,7.39 z"
     id="path43" />
  <rect
     fill="#c8a764"
     x="35.752625"
     y="40.237736"
     transform="rotate(-2.9)"
     width="5.7800002"
     height="5.0999999"
     rx="2.1199999"
     id="rect43" />
  <rect
     fill="#d4b471"
     x="261.17593"
     y="-180.20139"
     transform="rotate(41.4)"
     width="4.6799998"
     height="4.6199999"
     rx="1"
     id="rect44" />
  <rect
     fill="#c8a764"
     x="225.99004"
     y="42.937653"
     transform="rotate(0.3)"
     width="10.6"
     height="28.32"
     rx="0.88999999"
     id="rect45" />
  <path
     fill="#c8a764"
     d="m 332.94789,49.027897 c 0.08,3.68 -5.16,5.41 -7.29,2.56 q -0.39,-0.53 -0.91,-0.92 a 1.53,1.5 61.9 0 0 -0.96,-0.3 q -12.25,0.55 -14.26,0.58 -1.6,0.02 -1.64,-1.34 -0.03,-1.35 1.58,-1.41 2.01,-0.06 14.27,-0.08 a 1.5,1.53 25.5 0 0 0.94,-0.35 q 0.5,-0.41 0.87,-0.96 c 1.99,-2.95 7.31,-1.46 7.4,2.22 z m -2.35,-0.15 a 1.93,1.93 0 0 0 -1.93,-1.93 1.93,1.93 0 0 0 -1.93,1.93 1.93,1.93 0 0 0 1.93,1.93 1.93,1.93 0 0 0 1.93,-1.93 z"
     id="path45" />
  <path
     fill="#c8a764"
     d="m 44.947896,49.447897 q -0.01,0.88 -0.2,1.09 c -0.57,0.62 -5.77,0.24 -10.97,0.12 a 1.3,1.29 16.7 0 0 -1.13,0.6 c -2.13,3.41 -7.28,1.93 -7.25,-1.99 0.04,-3.92 5.22,-5.3 7.28,-1.86 a 1.29,1.3 74.3 0 0 1.12,0.63 c 5.21,-0.03 10.41,-0.31 10.97,0.32 q 0.19,0.21 0.18,1.09 z m -13.88,-0.02 a 1.86,1.86 0 0 0 -1.86,-1.86 1.86,1.86 0 0 0 -1.86,1.86 1.86,1.86 0 0 0 1.86,1.86 1.86,1.86 0 0 0 1.86,-1.86 z"
     id="path46" />
  <circle
     fill="#2c2812"
     cx="328.66788"
     cy="48.877899"
     r="1.9299999"
     id="circle46" />
  <circle
     fill="#2c2812"
     cx="29.207897"
     cy="49.427898"
     r="1.86"
     id="circle47" />
  <path
     fill="#262221"
     d="m 60.117896,50.337897 a 0.68,0.68 0 0 1 0.67,-0.69 l 14.96,-0.13 a 6.45,6.96 89.5 0 1 7.02,6.39 v 0.62 a 6.45,6.96 89.5 0 1 -6.9,6.51 l -14.96,0.13 a 0.68,0.68 0 0 1 -0.69,-0.67 z"
     id="path47" />
  <path
     fill="#c8a764"
     d="m 347.92789,59.837897 c 0.01,3.1 -2.11,4.58 -5.09,3.61 a 1.83,1.88 79.8 0 1 -0.85,-0.58 l -1.21,-1.48 a 1.37,1.37 0 0 0 -1.06,-0.5 q -11.1,0.01 -30.69,-0.15 -1.54,-0.02 -1.54,-0.78 0,-0.77 1.54,-0.79 19.58,-0.28 30.68,-0.34 a 1.37,1.37 0 0 0 1.06,-0.5 l 1.2,-1.49 a 1.88,1.83 9.8 0 1 0.85,-0.58 c 2.97,-0.99 5.11,0.47 5.11,3.58 z m -1.75,0.03 a 1.93,1.93 0 0 0 -1.93,-1.93 1.93,1.93 0 0 0 -1.93,1.93 1.93,1.93 0 0 0 1.93,1.93 1.93,1.93 0 0 0 1.93,-1.93 z"
     id="path48" />
  <path
     fill="#d4b471"
     d="m 44.837896,59.577897 q 0.01,1 -0.79,1 -19.74,-0.11 -25.95,-0.07 a 1.25,1.21 20.6 0 0 -0.87,0.38 c -1.08,1.14 -1.31,2.18 -3.47,2.48 -2.16,0.31 -4.5399988,-1.51 -4.5499988,-3.63 -0.01,-2.11 2.3499988,-3.95 4.5099988,-3.67 2.17,0.29 2.41,1.33 3.5,2.46 a 1.21,1.25 68.9 0 0 0.87,0.37 q 6.21,-0.02 25.95,-0.3 0.8,-0.02 0.8,0.98 z m -29.49,-0.01 a 1.99,1.99 0 0 0 -1.99,-1.99 1.99,1.99 0 0 0 -1.99,1.99 1.99,1.99 0 0 0 1.99,1.99 1.99,1.99 0 0 0 1.99,-1.99 z"
     id="path49" />
  <circle
     fill="#2c2812"
     cx="13.357896"
     cy="59.567898"
     r="1.99"
     id="circle49" />
  <rect
     fill="#c8a764"
     x="262.43909"
     y="60.036987"
     transform="rotate(-0.5)"
     width="10.62"
     height="14.92"
     rx="0.93000001"
     id="rect49" />
  <circle
     fill="#2c2812"
     cx="344.24786"
     cy="59.867901"
     r="1.9299999"
     id="circle50" />
  <path
     fill="#c8a764"
     d="m 44.737896,69.457897 0.02,0.36 a 0.84,0.84 0 0 1 -0.81,0.87 l -8.9,0.35 a 0.65,0.64 13.6 0 0 -0.54,0.32 l -0.95,1.62 a 1.43,1.46 6.7 0 1 -0.78,0.63 c -6.46,2.05 -8.07,-5.93 -2.86,-6.76 q 2.79,-0.44 4.63,1.8 a 1.19,1.16 68.9 0 0 0.96,0.44 l 8.45,-0.34 a 0.74,0.75 87.7 0 1 0.78,0.71 z m -11.95,0.91 a 1.93,1.93 0 0 0 -1.93,-1.93 1.93,1.93 0 0 0 -1.93,1.93 1.93,1.93 0 0 0 1.93,1.93 1.93,1.93 0 0 0 1.93,-1.93 z"
     id="path50" />
  <path
     fill="#c8a764"
     d="m 312.68789,70.307897 v -0.27 a 0.71,0.71 0 0 1 0.71,-0.71 h 10.08 a 1.73,1.76 23.4 0 0 1.21,-0.49 q 0.48,-0.46 1.04,-1.02 c 1.55,-1.55 5.65,-1.68 6.67,0.71 1.7,3.96 -1.99,7.3 -5.49,5.18 -1.04,-0.63 -1.29,-1.35 -2,-2.1 a 0.84,0.87 68.8 0 0 -0.62,-0.26 h -10.56 a 1.04,1.04 0 0 1 -1.04,-1.04 z m 14.0983,-0.2126 a 2.11,1.86 13.5 0 0 1.6175,2.3012 2.11,1.86 13.5 0 0 2.4859,-1.316 2.11,1.86 13.5 0 0 -1.6175,-2.3012 2.11,1.86 13.5 0 0 -2.4859,1.316 z"
     id="path51" />
  <circle
     fill="#2c2812"
     cx="30.857897"
     cy="70.367897"
     r="1.9299999"
     id="circle51" />
  <ellipse
     fill="#2c2812"
     cx="-336.2305"
     cy="8.1281338"
     transform="rotate(-166.5)"
     rx="2.1099999"
     ry="1.86"
     id="ellipse51" />
</svg>
