<?xml version="1.0" encoding="UTF-8" standalone="no"?>
<svg
   version="1.1"
   viewBox="0.00 0.00 401.00 437.00"
   id="svg84"
   sodipodi:docname="Pasted-20260210-204146.svg"
   inkscape:version="1.4.3 (0d15f75, 2025-12-25)"
   xmlns:inkscape="http://www.inkscape.org/namespaces/inkscape"
   xmlns:sodipodi="http://sodipodi.sourceforge.net/DTD/sodipodi-0.dtd"
   xmlns="http://www.w3.org/2000/svg"
   xmlns:svg="http://www.w3.org/2000/svg">
  <defs
     id="defs84" />
  <sodipodi:namedview
     id="namedview84"
     pagecolor="#ffffff"
     bordercolor="#000000"
     borderopacity="0.25"
     inkscape:showpageshadow="2"
     inkscape:pageopacity="0.0"
     inkscape:pagecheckerboard="0"
     inkscape:deskcolor="#d1d1d1"
     inkscape:zoom="2.7757437"
     inkscape:cx="267.13561"
     inkscape:cy="180.6723"
     inkscape:window-width="2560"
     inkscape:window-height="1494"
     inkscape:window-x="-11"
     inkscape:window-y="-11"
     inkscape:window-maximized="1"
     inkscape:current-layer="svg84" />
  <g
     stroke-width="2.00"
     fill="none"
     stroke-linecap="butt"
     id="g63">
    <path
       stroke="#888c8f"
       vector-effect="non-scaling-stroke"
       d="   M 376.75 71.86   Q 362.95 41.69 330.90 30.95"
       id="path1" />
    <path
       stroke="#83898f"
       vector-effect="non-scaling-stroke"
       d="   M 330.90 30.95   Q 320.24 27.68 312.00 27.68   Q 130.70 27.72 110.02 27.67   Q 83.57 27.61 78.05 28.59   C 46.59 34.17 22.00 57.69 16.56 89.23   Q 15.38 96.12 15.38 120.38   Q 15.42 253.76 15.30 318.43   Q 15.25 343.05 16.29 349.47   C 20.23 373.70 36.01 395.88 58.32 406.44   Q 64.94 409.57 75.22 412.05   C 84.51 414.29 94.22 414.10 105.00 414.06   Q 140.83 413.94 297.31 413.95   Q 315.94 413.95 322.85 412.48   C 342.56 408.30 361.53 395.82 371.96 378.46   Q 383.36 359.48 383.36 337.00   Q 383.33 214.96 383.22 100.50   Q 383.21 87.16 376.75 71.86"
       id="path2" />
    <path
       stroke="#0c151f"
       vector-effect="non-scaling-stroke"
       d="   M 330.90 30.95   C 331.26 36.82 325.26 37.43 320.79 37.50   Q 301.83 37.79 280.38 37.35   Q 267.25 37.09 254.05 38.18   C 246.78 38.78 236.80 41.31 230.40 42.03   C 220.94 43.09 212.56 41.15 202.58 39.16   C 190.35 36.71 178.98 36.56 165.03 36.87   Q 150.27 37.20 123.14 37.99   Q 114.83 38.23 95.06 36.64   C 84.81 35.82 77.31 35.73 69.28 40.18   C 56.44 47.28 45.16 57.87 34.39 69.30   Q 23.31 81.07 23.28 97.51   Q 23.21 136.58 22.41 194.48   C 22.32 201.19 22.54 209.05 22.87 215.97   Q 24.64 252.97 24.50 262.00   Q 24.45 264.78 23.90 309.86   Q 23.58 336.84 24.74 343.15   Q 27.87 360.21 35.80 374.43   Q 42.55 386.53 56.43 387.99   C 65.53 388.95 72.79 389.97 79.51 393.49   Q 84.51 396.11 94.03 401.79   C 109.48 411.00 132.25 409.96 149.78 409.28   C 168.91 408.54 185.82 408.97 203.81 408.61   Q 219.28 408.31 230.44 408.69   Q 258.22 409.64 272.24 409.38   Q 291.97 409.00 311.13 401.84   C 320.83 398.21 332.49 393.31 340.66 387.50   Q 345.64 383.96 361.40 370.67   C 367.91 365.18 372.20 359.85 373.48 352.54   Q 375.10 343.29 375.18 336.20   Q 375.46 311.72 374.92 291.19   C 374.63 280.19 373.94 268.78 367.27 259.77   C 360.38 250.46 345.43 242.98 340.51 259.24   Q 338.56 265.69 337.59 274.18   C 336.65 282.37 332.82 285.42 326.00 288.68   C 318.82 292.10 314.08 295.84 316.08 304.95   Q 317.07 309.50 319.01 314.71   C 322.06 322.96 321.22 328.80 319.38 337.00   C 317.19 346.78 327.64 347.96 333.17 351.41   C 335.09 352.61 335.40 354.46 333.07 355.61   C 327.35 358.43 318.43 357.55 312.01 355.98   Q 301.37 353.36 292.96 347.94   Q 280.91 340.18 278.75 338.87   Q 260.37 327.74 242.87 341.20   Q 236.53 346.09 230.18 353.22   Q 227.13 356.65 223.67 358.44   C 213.59 363.65 203.22 347.22 200.08 339.94   Q 197.52 333.99 196.89 322.77   A 0.59 0.59 0.0 0 0 196.42 322.22   Q 192.61 321.45 190.00 319.89   C 187.58 318.44 185.89 314.84 183.34 313.38   Q 181.92 312.57 177.78 310.88   A 27.21 26.78 71.2 0 1 174.06 309.01   L 157.08 298.74   A 0.88 0.87 57.9 0 1 157.45 297.12   L 167.01 296.22"
       id="path3" />
    <path
       stroke="#4d3424"
       vector-effect="non-scaling-stroke"
       d="   M 167.01 296.22   Q 178.92 303.21 191.01 309.98   Q 204.58 317.58 211.36 319.35   Q 222.51 322.27 234.27 320.24   Q 243.69 318.61 252.29 313.02"
       id="path4" />
    <path
       stroke="#573f30"
       vector-effect="non-scaling-stroke"
       d="   M 252.29 313.02   C 258.43 309.45 265.16 305.96 270.75 302.42   Q 276.71 298.64 282.55 295.87   Q 286.96 293.77 288.71 298.09   C 291.18 304.17 287.92 309.52 285.46 315.14   C 281.65 323.86 284.47 336.14 295.19 337.83   C 302.02 338.91 308.71 336.81 311.78 330.45   A 4.71 4.69 -26.4 0 0 312.17 329.30   C 313.78 321.08 309.81 312.51 306.96 305.25   Q 305.52 301.57 306.32 294.31"
       id="path5" />
    <path
       stroke="#624939"
       vector-effect="non-scaling-stroke"
       d="   M 306.32 294.31   Q 308.98 283.46 317.78 275.80   Q 321.70 272.39 323.60 270.84   C 331.08 264.76 333.87 254.42 333.59 245.00   Q 333.20 232.00 333.59 210.19   C 333.76 200.47 332.51 190.47 327.18 183.09   Q 324.04 178.72 317.72 175.02   Q 292.10 160.03 261.18 142.84   C 255.60 139.74 246.80 134.26 240.15 130.54   Q 220.48 119.55 211.17 114.06   Q 199.27 107.04 195.35 105.87   C 179.62 101.17 164.37 100.91 149.95 109.46   Q 137.21 117.02 126.45 122.87   C 117.52 127.73 108.43 133.23 99.29 138.21"
       id="path6" />
    <path
       stroke="#573f30"
       vector-effect="non-scaling-stroke"
       d="   M 99.29 138.21   Q 90.20 143.37 81.22 148.72   Q 77.13 151.15 73.76 154.50"
       id="path7" />
    <path
       stroke="#0c151f"
       vector-effect="non-scaling-stroke"
       d="   M 73.76 154.50   Q 70.85 151.26 68.75 147.56   C 63.66 138.53 71.67 131.03 78.67 126.29   Q 85.88 121.42 92.75 118.18   Q 126.80 102.17 161.59 97.26   C 179.33 94.75 195.82 96.65 211.19 104.63   C 222.06 110.27 231.65 117.18 241.37 122.72   C 248.32 126.68 257.75 130.49 266.17 133.99   Q 281.35 140.32 287.38 154.58   A 2.34 2.31 6.8 0 0 288.15 155.55   C 294.48 160.18 303.21 165.23 311.28 166.37   A 2.81 2.70 63.8 0 1 312.33 166.75   Q 322.80 173.13 328.59 182.05   Q 331.92 187.18 334.02 194.56   C 335.32 199.14 335.31 204.69 335.87 208.39   A 2.06 2.04 -68.2 0 0 336.26 209.31   Q 340.18 214.61 343.68 218.11   C 350.27 224.70 359.94 227.85 368.06 221.73   C 377.37 214.72 377.94 198.13 378.37 187.22   C 379.14 168.06 379.06 151.28 378.47 136.74   C 377.98 124.43 378.69 106.80 378.33 94.07   Q 378.11 86.53 376.75 71.86"
       id="path8" />
    <path
       stroke="#c99252"
       vector-effect="non-scaling-stroke"
       d="   M 261.23 240.22   Q 264.16 243.82 264.07 248.50   Q 263.95 254.93 264.14 261.38   C 264.27 265.77 268.11 268.00 271.13 270.59   Q 272.78 272.01 272.79 273.77   Q 272.85 283.90 273.18 292.63   A 0.20 0.20 0.0 0 0 273.46 292.80   L 278.86 290.71   A 0.40 0.40 0.0 0 0 279.11 290.34   Q 279.30 273.71 279.14 257.04   C 279.10 252.07 279.86 243.63 278.74 236.76"
       id="path9" />
    <path
       stroke="#c99252"
       vector-effect="non-scaling-stroke"
       d="   M 281.37 235.37   Q 282.16 245.44 282.03 251.00   Q 281.62 269.80 281.73 288.73   A 0.79 0.79 0.0 0 0 282.51 289.52   C 292.52 289.68 296.81 298.24 294.58 307.26   C 293.72 310.76 291.25 314.28 290.20 317.70   C 287.88 325.23 290.95 333.75 300.24 332.36   Q 304.95 331.65 306.46 327.19   C 308.11 322.31 305.60 316.14 303.55 311.42"
       id="path10" />
    <path
       stroke="#c99252"
       vector-effect="non-scaling-stroke"
       d="   M 242.94 310.77   L 269.18 295.67   A 2.32 2.30 -15.1 0 0 270.34 293.67   L 270.34 275.14   A 2.40 2.38 19.8 0 0 269.46 273.29   Q 266.80 271.08 262.65 267.07   Q 260.50 265.00 260.77 263.25   Q 262.46 251.96 259.82 242.36"
       id="path11" />
    <path
       stroke="#b87c3c"
       vector-effect="non-scaling-stroke"
       d="   M 203.27 309.49   Q 211.00 313.29 219.88 314.13   Q 231.70 315.25 242.09 311.25"
       id="path12" />
    <path
       stroke="#bf8746"
       vector-effect="non-scaling-stroke"
       d="   M 242.09 311.25   Q 242.38 310.92 242.94 310.77"
       id="path13" />
    <path
       stroke="#9e6135"
       vector-effect="non-scaling-stroke"
       d="   M 242.94 310.77   L 252.29 313.02"
       id="path14" />
    <path
       stroke="#5d4230"
       vector-effect="non-scaling-stroke"
       d="   M 73.76 154.50   C 65.43 163.83 64.90 175.32 65.49 187.27"
       id="path15" />
    <path
       stroke="#533724"
       vector-effect="non-scaling-stroke"
       d="   M 65.49 187.27   Q 65.33 201.64 65.50 216.12   Q 65.59 224.53 66.75 228.52   C 68.48 234.50 72.44 241.91 77.85 245.16   Q 95.26 255.63 124.25 271.78   C 138.57 279.77 152.77 288.03 167.01 296.22"
       id="path16" />
    <path
       stroke="#b3764a"
       vector-effect="non-scaling-stroke"
       d="   M 306.32 294.31   L 303.55 311.42"
       id="path17" />
    <path
       stroke="#d39c5b"
       vector-effect="non-scaling-stroke"
       d="   M 303.55 311.42   Q 300.39 304.97 300.34 299.75   Q 300.24 287.92 308.57 276.29   Q 312.07 271.41 319.57 265.78   Q 324.12 262.37 325.67 257.03   Q 326.71 253.44 326.67 246.30   Q 326.56 227.18 326.57 208.25   Q 326.58 205.10 326.39 201.97"
       id="path18" />
    <path
       stroke="#d7af74"
       vector-effect="non-scaling-stroke"
       d="   M 326.39 201.97   Q 326.06 197.64 325.22 193.36   C 324.10 187.65 320.46 183.95 315.33 181.18   C 302.08 174.03 290.61 166.87 274.66 157.87   C 252.76 145.51 227.94 130.98 202.09 116.41   Q 194.65 112.22 190.51 110.91   Q 176.05 106.30 161.87 110.98   C 156.41 112.79 150.16 116.92 144.79 120.23"
       id="path19" />
    <path
       stroke="#d5a564"
       vector-effect="non-scaling-stroke"
       d="   M 144.79 120.23   L 130.16 128.29   A 0.30 0.30 0.0 0 0 130.16 128.82   Q 153.51 142.20 181.14 157.74   C 182.99 158.78 186.50 161.05 188.51 161.11   Q 204.45 161.56 205.81 161.59   C 207.09 161.61 209.54 161.99 210.54 162.56   Q 223.11 169.71 224.42 170.36   Q 227.30 171.78 227.31 175.24   Q 227.36 187.14 227.16 196.72   A 1.24 1.23 -74.8 0 0 227.78 197.81   Q 248.23 209.42 271.58 223.19   Q 276.46 226.06 279.69 231.72"
       id="path20" />
    <path
       stroke="#d39c5b"
       vector-effect="non-scaling-stroke"
       d="   M 279.69 231.72   L 281.37 235.37"
       id="path21" />
    <path
       stroke="#b3764a"
       vector-effect="non-scaling-stroke"
       d="   M 281.37 235.37   Q 280.08 234.17 279.74 233.30   A 0.49 0.49 0.0 0 0 279.28 232.98   L 278.51 232.98   A 0.33 0.33 0.0 0 0 278.18 233.37   L 278.74 236.76"
       id="path22" />
    <path
       stroke="#d39c5b"
       vector-effect="non-scaling-stroke"
       d="   M 278.74 236.76   Q 277.90 232.87 275.34 230.19"
       id="path23" />
    <path
       stroke="#d5a564"
       vector-effect="non-scaling-stroke"
       d="   M 275.34 230.19   C 274.09 228.78 272.78 227.38 271.19 226.33   C 267.56 223.92 263.36 221.14 259.97 219.28   Q 241.78 209.31 227.15 199.94   A 4.70 4.66 61.7 0 0 224.68 199.19   Q 207.94 198.89 198.69 199.14   C 196.05 199.21 194.19 198.51 192.07 197.20   Q 183.78 192.07 166.97 182.35   Q 164.98 181.20 163.18 179.31   A 1.60 1.58 -67.0 0 1 162.74 178.21   L 162.74 172.83   A 1.40 1.39 -75.4 0 0 162.03 171.61   L 109.24 141.26   A 1.43 1.37 -26.3 0 0 108.70 141.09   Q 107.48 140.98 106.28 141.69"
       id="path24" />
    <path
       stroke="#b3764a"
       vector-effect="non-scaling-stroke"
       d="   M 106.28 141.69   L 99.29 138.21"
       id="path25" />
    <path
       stroke="#cb9b5b"
       vector-effect="non-scaling-stroke"
       d="   M 106.28 141.69   Q 96.96 147.02 87.72 152.52   Q 82.46 155.65 80.14 157.62   Q 75.88 161.24 73.61 167.25"
       id="path26" />
    <path
       stroke="#ba7d40"
       vector-effect="non-scaling-stroke"
       d="   M 73.61 167.25   Q 71.11 177.27 72.04 188.57"
       id="path27" />
    <path
       stroke="#9e6135"
       vector-effect="non-scaling-stroke"
       d="   M 72.04 188.57   C 70.34 185.35 68.29 185.18 65.49 187.27"
       id="path28" />
    <path
       stroke="#cda56b"
       vector-effect="non-scaling-stroke"
       d="   M 255.69 237.64   L 259.82 242.36"
       id="path29" />
    <path
       stroke="#edcb7c"
       vector-effect="non-scaling-stroke"
       d="   M 259.82 242.36   Q 257.24 243.19 255.93 244.46"
       id="path30" />
    <path
       stroke="#e6c072"
       vector-effect="non-scaling-stroke"
       d="   M 255.93 244.46   C 251.24 246.93 246.26 250.11 241.84 251.83   Q 223.38 259.05 204.93 249.75"
       id="path31" />
    <path
       stroke="#ebc16b"
       vector-effect="non-scaling-stroke"
       d="   M 275.34 230.19   Q 274.76 234.56 270.11 235.36"
       id="path32" />
    <path
       stroke="#d5a564"
       vector-effect="non-scaling-stroke"
       d="   M 270.11 235.36   Q 267.98 230.81 263.95 228.53   Q 242.04 216.14 229.00 208.33   Q 226.60 206.88 222.27 206.88   Q 195.52 206.85 192.44 206.86   A 3.42 3.37 59.4 0 1 190.70 206.40   L 159.67 188.48   A 1.83 1.82 -78.4 0 1 158.76 187.09   C 158.18 181.38 150.42 181.36 147.84 185.53   A 2.15 2.12 33.1 0 0 148.47 188.41   Q 150.78 189.99 155.53 189.60   A 3.83 3.82 -30.9 0 1 157.89 190.19   Q 172.87 199.75 188.85 208.19   A 8.11 7.98 -30.4 0 0 192.53 209.12   Q 207.51 209.24 223.75 209.53   Q 226.56 209.58 228.00 210.51   Q 239.15 217.77 251.57 224.21   C 255.90 226.45 259.73 229.13 263.91 232.09   Q 266.90 234.21 268.07 237.18"
       id="path33" />
    <path
       stroke="#ebc16b"
       vector-effect="non-scaling-stroke"
       d="   M 268.07 237.18   Q 264.41 241.32 261.23 240.22"
       id="path34" />
    <path
       stroke="#cb9b5b"
       vector-effect="non-scaling-stroke"
       d="   M 261.23 240.22   Q 258.94 235.89 254.67 233.33   Q 242.92 226.31 230.92 219.30   Q 227.49 217.29 223.87 217.16   Q 211.13 216.68 191.43 217.33   C 189.12 217.41 186.61 217.15 184.98 216.06   Q 173.72 208.55 167.33 204.81   A 0.78 0.77 21.0 0 1 166.96 203.99   Q 167.70 200.10 163.66 199.40   C 160.77 198.90 155.29 199.57 155.59 203.51   C 155.82 206.45 161.58 206.85 163.41 206.45   A 3.03 3.01 -34.7 0 1 165.66 206.85   Q 169.63 209.35 183.12 217.50   C 185.00 218.63 186.98 219.28 188.98 219.29   Q 191.42 219.31 224.25 219.71   Q 226.66 219.74 229.92 221.59   Q 238.76 226.62 247.63 231.86   Q 251.84 234.35 255.69 237.64"
       id="path35" />
    <path
       stroke="#efd485"
       vector-effect="non-scaling-stroke"
       d="   M 255.69 237.64   Q 249.68 239.43 244.17 241.98   Q 238.05 244.82 235.64 245.23   C 226.74 246.76 216.15 245.45 208.12 242.67   C 202.46 240.72 190.55 234.76 180.91 229.76   Q 167.64 222.88 157.95 219.01   Q 155.22 217.92 139.70 210.02   C 133.39 206.81 128.70 202.62 122.21 199.40   C 118.00 197.31 112.59 194.08 110.08 194.20   A 0.63 0.62 1.5 0 0 109.48 194.76   L 109.36 195.78"
       id="path36" />
    <path
       stroke="#ddac59"
       vector-effect="non-scaling-stroke"
       d="   M 109.36 195.78   Q 96.30 188.03 83.31 180.29   Q 78.39 177.37 76.74 175.07   Q 74.43 171.86 73.61 167.25"
       id="path37" />
    <path
       stroke="#e2ad58"
       vector-effect="non-scaling-stroke"
       d="   M 242.09 311.25   Q 234.55 305.02 234.03 295.20   Q 233.22 280.07 237.35 265.66   Q 240.59 254.37 251.28 248.58   A 2.96 2.91 23.7 0 1 252.02 248.30   Q 254.49 247.74 256.91 246.13   A 0.70 0.70 0.0 0 0 256.84 244.92   L 255.93 244.46"
       id="path38" />
    <path
       stroke="#dfb56a"
       vector-effect="non-scaling-stroke"
       d="   M 109.36 195.78   L 204.93 249.75"
       id="path39" />
    <path
       stroke="#d49846"
       vector-effect="non-scaling-stroke"
       d="   M 204.93 249.75   Q 206.33 252.97 208.44 255.71   Q 212.18 260.54 212.56 261.23   C 217.50 270.23 218.55 280.82 216.87 291.11   Q 216.16 295.46 214.12 299.07   Q 213.12 300.82 208.85 304.41   Q 205.96 306.84 203.27 309.49"
       id="path40" />
    <path
       stroke="#b07234"
       vector-effect="non-scaling-stroke"
       d="   M 203.27 309.49   Q 194.11 303.59 184.43 298.19   Q 165.95 287.88 165.27 287.49   Q 138.52 272.06 107.88 255.13   C 100.81 251.23 92.37 246.03 85.76 242.03   C 78.44 237.62 74.81 233.81 73.20 226.04   Q 72.37 221.99 72.32 220.62   Q 71.75 204.46 72.04 188.57"
       id="path41" />
    <path
       stroke="#d5a564"
       vector-effect="non-scaling-stroke"
       d="   M 301.21 210.44   L 269.15 191.57   A 2.48 2.47 15.4 0 1 267.93 189.44   L 267.93 182.45   A 0.87 0.86 -15.0 0 1 268.37 181.70   C 270.62 180.45 272.72 178.56 271.09 175.93   A 2.01 1.97 86.0 0 0 270.22 175.16   C 266.33 173.40 260.87 173.57 260.30 178.91   A 1.29 1.26 -63.9 0 0 260.63 179.91   Q 262.04 181.48 264.49 182.16   A 0.89 0.89 0.0 0 1 265.14 183.02   L 265.14 190.91   A 2.58 2.57 16.3 0 0 266.33 193.08   C 276.29 199.44 287.02 204.81 297.24 210.76   Q 300.46 212.63 302.80 216.16"
       id="path42" />
    <path
       stroke="#ebc16b"
       vector-effect="non-scaling-stroke"
       d="   M 302.80 216.16   Q 300.50 219.50 297.25 220.97"
       id="path43" />
    <path
       stroke="#d5a564"
       vector-effect="non-scaling-stroke"
       d="   M 297.25 220.97   C 293.31 215.63 290.13 214.07 283.21 210.00   Q 270.15 202.30 252.50 192.18   A 2.42 2.41 13.7 0 1 251.29 190.20   C 250.78 180.16 251.24 170.31 250.88 163.39   Q 250.76 161.01 249.17 160.05   Q 236.48 152.45 223.72 145.94   A 0.60 0.60 0.0 0 1 223.41 145.29   Q 224.11 142.06 220.81 140.95   Q 216.80 139.60 213.47 142.00   A 1.63 1.61 80.9 0 0 212.89 142.81   C 211.34 147.61 217.88 147.43 220.97 147.31   A 3.53 3.42 58.2 0 1 222.85 147.78   L 247.10 161.78   A 2.64 2.61 15.1 0 1 248.42 164.05   L 248.42 190.93   A 2.94 2.93 -71.3 0 0 249.57 193.26   Q 250.94 194.31 253.00 195.51   Q 270.07 205.48 288.03 215.72   Q 291.10 217.46 294.03 221.78"
       id="path44" />
    <path
       stroke="#ebc16b"
       vector-effect="non-scaling-stroke"
       d="   M 294.03 221.78   Q 293.69 223.58 291.94 225.00   C 290.01 226.57 288.44 225.76 286.85 224.29"
       id="path45" />
    <path
       stroke="#d5a564"
       vector-effect="non-scaling-stroke"
       d="   M 286.85 224.29   Q 283.80 220.03 278.98 217.26   Q 260.48 206.63 240.15 195.07   A 1.35 1.35 0.0 0 1 239.66 194.58   Q 238.90 193.23 238.89 191.25   Q 238.85 180.23 238.88 169.22   Q 238.89 165.61 235.62 164.12   Q 230.04 161.57 221.05 155.96   C 216.59 153.17 209.29 154.09 204.14 154.08   A 1.01 0.98 58.9 0 1 203.65 153.95   L 189.64 146.12   A 0.81 0.81 0.0 0 1 189.24 145.31   C 190.44 136.96 174.67 139.60 178.61 145.69   A 2.31 2.29 88.7 0 0 179.39 146.44   C 181.29 147.56 184.65 147.39 186.74 147.62   A 7.16 7.12 -26.5 0 1 189.54 148.55   Q 194.74 151.62 200.37 154.69   C 206.01 157.75 213.47 154.19 218.82 157.43   Q 226.08 161.81 234.52 166.33   A 3.34 3.33 -76.1 0 1 236.29 169.28   Q 236.28 186.69 236.64 194.28   Q 236.72 195.90 238.71 197.04   Q 259.81 209.11 279.55 221.22   Q 283.03 223.35 285.19 226.67"
       id="path46" />
    <path
       stroke="#ebc16b"
       vector-effect="non-scaling-stroke"
       d="   M 285.19 226.67   Q 283.54 230.31 279.69 231.72"
       id="path47" />
    <path
       stroke="#edcb7c"
       vector-effect="non-scaling-stroke"
       d="   M 326.39 201.97   Q 324.38 204.17 322.46 206.31   Q 320.22 208.79 318.15 210.24   Q 312.48 214.21 306.12 216.29"
       id="path48" />
    <path
       stroke="#d7af74"
       vector-effect="non-scaling-stroke"
       d="   M 306.12 216.29   L 301.21 210.44"
       id="path49" />
    <path
       stroke="#efd485"
       vector-effect="non-scaling-stroke"
       d="   M 301.21 210.44   Q 306.28 207.04 311.37 203.64   C 315.83 200.66 316.63 194.69 314.86 189.97   C 313.76 187.07 309.74 183.53 307.48 182.27   Q 299.10 177.65 292.70 174.79   Q 288.01 172.69 286.77 171.86   Q 286.34 171.57 280.79 168.67   Q 270.43 163.27 248.50 150.03   Q 246.59 148.87 229.26 139.82   C 226.74 138.50 224.04 136.54 222.17 135.39   Q 209.91 127.88 194.83 120.47   Q 189.66 117.92 185.06 117.01   Q 173.56 114.74 162.22 117.01   C 157.50 117.95 156.46 118.62 151.60 119.35   Q 148.57 119.80 146.13 121.26   A 0.58 0.57 -58.3 0 1 145.76 121.35   Q 144.90 121.29 144.79 120.23"
       id="path50" />
    <path
       stroke="#d39c5b"
       vector-effect="non-scaling-stroke"
       d="   M 270.11 235.36   C 273.40 240.95 272.57 246.50 273.07 252.58   A 0.68 0.67 3.4 0 0 273.62 253.19   C 278.18 254.02 275.54 260.53 272.72 261.80   C 269.78 263.12 267.08 261.49 267.94 258.00   Q 268.36 256.30 269.91 254.61   A 2.02 2.02 0.0 0 0 270.45 253.26   C 270.51 248.26 270.64 242.18 268.07 237.18"
       id="path51" />
    <path
       stroke="#d39c5b"
       vector-effect="non-scaling-stroke"
       d="   M 306.12 216.29   Q 308.08 218.84 308.22 223.25   Q 308.58 234.99 308.58 238.26   Q 308.58 242.53 306.32 246.07   Q 301.52 253.57 299.62 256.66   A 3.12 3.12 0.0 0 0 299.16 258.29   L 299.16 277.40   A 1.24 1.22 84.3 0 1 298.18 278.61   L 297.69 278.71   A 0.85 0.84 84.0 0 1 296.67 277.88   L 296.67 257.79   A 2.46 2.26 56.6 0 1 296.79 257.04   C 298.32 252.51 301.37 249.02 303.97 245.24   Q 305.72 242.69 305.91 240.44   Q 306.40 234.55 305.84 225.25   Q 305.59 221.09 302.80 216.16"
       id="path52" />
    <path
       stroke="#d39c5b"
       vector-effect="non-scaling-stroke"
       d="   M 297.25 220.97   C 299.09 224.73 299.23 229.65 299.28 233.15   A 0.63 0.62 3.7 0 0 299.83 233.77   C 305.18 234.51 302.40 246.10 295.66 243.36   A 2.73 2.71 -75.2 0 1 294.00 240.49   Q 294.45 237.11 296.73 234.46   A 1.51 1.48 64.9 0 0 297.09 233.43   Q 297.08 233.22 296.60 228.52   Q 296.21 224.62 294.03 221.78"
       id="path53" />
    <path
       stroke="#d39c5b"
       vector-effect="non-scaling-stroke"
       d="   M 286.85 224.29   Q 291.17 229.51 291.18 236.12   Q 291.22 258.12 290.83 282.88   A 1.10 1.10 0.0 0 1 289.54 283.95   L 289.48 283.94   A 1.54 1.54 0.0 0 1 288.20 282.43   Q 288.12 268.50 288.17 255.40   C 288.19 249.97 288.57 241.64 288.25 234.25   Q 288.04 229.69 285.19 226.67"
       id="path54" />
    <path
       stroke="#d5a564"
       vector-effect="non-scaling-stroke"
       d="   M 111.80 138.75   A 0.63 0.63 0.0 0 0 111.80 139.84   L 163.49 169.68   A 2.85 2.85 0.0 0 1 164.91 172.02   C 165.11 176.42 164.51 178.89 168.64 180.89   Q 182.73 187.71 195.20 196.15   A 5.02 4.96 -27.7 0 0 197.99 197.00   L 224.25 197.00   A 0.48 0.47 0.0 0 0 224.73 196.53   L 224.73 174.90   A 3.19 3.19 0.0 0 0 222.93 172.03   Q 217.39 169.32 210.99 165.31   C 208.22 163.57 206.46 163.05 203.25 163.07   Q 194.16 163.12 189.51 162.98   C 185.16 162.85 181.61 160.58 177.16 158.11   Q 155.17 145.86 128.42 130.55   A 2.78 2.76 -44.8 0 0 125.65 130.55   L 121.52 132.94   A 0.83 0.82 44.9 0 0 121.53 134.37   L 180.38 167.99   A 0.93 0.90 -32.6 0 0 180.92 168.10   C 184.31 167.71 189.84 167.04 189.78 171.76   Q 189.76 173.34 188.23 173.99   Q 182.39 176.49 178.85 173.04   Q 178.15 172.36 178.53 170.47   A 1.00 0.98 -69.9 0 0 178.05 169.41   L 119.80 135.78   A 2.84 2.82 -44.8 0 0 116.95 135.78   L 111.80 138.75"
       id="path55" />
    <path
       stroke="#d5a564"
       vector-effect="non-scaling-stroke"
       d="   M 187.1276 171.1037   A 3.29 1.75 -2.2 0 0 183.7728 169.4813   A 3.29 1.75 -2.2 0 0 180.5524 171.3563   A 3.29 1.75 -2.2 0 0 183.9072 172.9787   A 3.29 1.75 -2.2 0 0 187.1276 171.1037"
       id="path56" />
    <path
       stroke="#d5a564"
       vector-effect="non-scaling-stroke"
       d="   M 180.2522 143.6644   A 3.60 1.60 -178.0 0 0 183.7942 145.3890   A 3.60 1.60 -178.0 0 0 187.4478 143.9156   A 3.60 1.60 -178.0 0 0 183.9058 142.1910   A 3.60 1.60 -178.0 0 0 180.2522 143.6644"
       id="path57" />
    <path
       stroke="#d5a564"
       vector-effect="non-scaling-stroke"
       d="   M 222.06 144.01   A 3.34 1.70 0.0 0 0 218.72 142.31   A 3.34 1.70 0.0 0 0 215.38 144.01   A 3.34 1.70 0.0 0 0 218.72 145.71   A 3.34 1.70 0.0 0 0 222.06 144.01"
       id="path58" />
    <path
       stroke="#d39c5b"
       vector-effect="non-scaling-stroke"
       d="   M 299.7139 236.4079   A 2.58 1.78 -59.9 0 0 296.8800 237.7473   A 2.58 1.78 -59.9 0 0 297.1261 240.8721   A 2.58 1.78 -59.9 0 0 299.9600 239.5327   A 2.58 1.78 -59.9 0 0 299.7139 236.4079"
       id="path59" />
    <path
       stroke="#d5a564"
       vector-effect="non-scaling-stroke"
       d="   M 263.1237 177.4692   A 3.09 1.62 -174.6 0 0 266.0475 179.3728   A 3.09 1.62 -174.6 0 0 269.2763 178.0508   A 3.09 1.62 -174.6 0 0 266.3525 176.1472   A 3.09 1.62 -174.6 0 0 263.1237 177.4692"
       id="path60" />
    <path
       stroke="#d5a564"
       vector-effect="non-scaling-stroke"
       d="   M 156.3372 186.0564   A 3.19 1.63 -2.4 0 0 153.0817 184.5614   A 3.19 1.63 -2.4 0 0 149.9628 186.3236   A 3.19 1.63 -2.4 0 0 153.2183 187.8186   A 3.19 1.63 -2.4 0 0 156.3372 186.0564"
       id="path61" />
    <path
       stroke="#d39c5b"
       vector-effect="non-scaling-stroke"
       d="   M 273.3390 256.5058   A 2.06 1.51 -45.3 0 0 270.8167 256.9079   A 2.06 1.51 -45.3 0 0 270.4410 259.4342   A 2.06 1.51 -45.3 0 0 272.9633 259.0321   A 2.06 1.51 -45.3 0 0 273.3390 256.5058"
       id="path62" />
    <path
       stroke="#cb9b5b"
       vector-effect="non-scaling-stroke"
       d="   M 158.6512 202.7068   A 2.98 1.62 -178.4 0 0 161.5848 204.4094   A 2.98 1.62 -178.4 0 0 164.6088 202.8732   A 2.98 1.62 -178.4 0 0 161.6752 201.1706   A 2.98 1.62 -178.4 0 0 158.6512 202.7068"
       id="path63" />
  </g>
  <path
     style="fill:#e9b862;fill-opacity:1;stroke:#e9b862;stroke-opacity:1"
     d="m 278.30889,290.40928 43.05191,-23.43654 9.42556,-15.79419 -1.4011,-10.1898 0.76424,-22.6723 -0.38212,-13.62886 -1.01898,-7.76972 -25.85662,12.48251 -20.63434,14.26571 -11.46352,9.2982 6.75074,46.49096 z"
     id="path85" />
  <path
     fill="#ffffff"
     d="   M 401.00 0.00   L 401.00 437.00   L 0.00 437.00   L 0.00 0.00   L 401.00 0.00   Z   M 376.75 71.86   Q 362.95 41.69 330.90 30.95   Q 320.24 27.68 312.00 27.68   Q 130.70 27.72 110.02 27.67   Q 83.57 27.61 78.05 28.59   C 46.59 34.17 22.00 57.69 16.56 89.23   Q 15.38 96.12 15.38 120.38   Q 15.42 253.76 15.30 318.43   Q 15.25 343.05 16.29 349.47   C 20.23 373.70 36.01 395.88 58.32 406.44   Q 64.94 409.57 75.22 412.05   C 84.51 414.29 94.22 414.10 105.00 414.06   Q 140.83 413.94 297.31 413.95   Q 315.94 413.95 322.85 412.48   C 342.56 408.30 361.53 395.82 371.96 378.46   Q 383.36 359.48 383.36 337.00   Q 383.33 214.96 383.22 100.50   Q 383.21 87.16 376.75 71.86   Z"
     id="path64" />
  <path
     fill="#06121e"
     d="   M 330.90 30.95   C 331.26 36.82 325.26 37.43 320.79 37.50   Q 301.83 37.79 280.38 37.35   Q 267.25 37.09 254.05 38.18   C 246.78 38.78 236.80 41.31 230.40 42.03   C 220.94 43.09 212.56 41.15 202.58 39.16   C 190.35 36.71 178.98 36.56 165.03 36.87   Q 150.27 37.20 123.14 37.99   Q 114.83 38.23 95.06 36.64   C 84.81 35.82 77.31 35.73 69.28 40.18   C 56.44 47.28 45.16 57.87 34.39 69.30   Q 23.31 81.07 23.28 97.51   Q 23.21 136.58 22.41 194.48   C 22.32 201.19 22.54 209.05 22.87 215.97   Q 24.64 252.97 24.50 262.00   Q 24.45 264.78 23.90 309.86   Q 23.58 336.84 24.74 343.15   Q 27.87 360.21 35.80 374.43   Q 42.55 386.53 56.43 387.99   C 65.53 388.95 72.79 389.97 79.51 393.49   Q 84.51 396.11 94.03 401.79   C 109.48 411.00 132.25 409.96 149.78 409.28   C 168.91 408.54 185.82 408.97 203.81 408.61   Q 219.28 408.31 230.44 408.69   Q 258.22 409.64 272.24 409.38   Q 291.97 409.00 311.13 401.84   C 320.83 398.21 332.49 393.31 340.66 387.50   Q 345.64 383.96 361.40 370.67   C 367.91 365.18 372.20 359.85 373.48 352.54   Q 375.10 343.29 375.18 336.20   Q 375.46 311.72 374.92 291.19   C 374.63 280.19 373.94 268.78 367.27 259.77   C 360.38 250.46 345.43 242.98 340.51 259.24   Q 338.56 265.69 337.59 274.18   C 336.65 282.37 332.82 285.42 326.00 288.68   C 318.82 292.10 314.08 295.84 316.08 304.95   Q 317.07 309.50 319.01 314.71   C 322.06 322.96 321.22 328.80 319.38 337.00   C 317.19 346.78 327.64 347.96 333.17 351.41   C 335.09 352.61 335.40 354.46 333.07 355.61   C 327.35 358.43 318.43 357.55 312.01 355.98   Q 301.37 353.36 292.96 347.94   Q 280.91 340.18 278.75 338.87   Q 260.37 327.74 242.87 341.20   Q 236.53 346.09 230.18 353.22   Q 227.13 356.65 223.67 358.44   C 213.59 363.65 203.22 347.22 200.08 339.94   Q 197.52 333.99 196.89 322.77   A 0.59 0.59 0.0 0 0 196.42 322.22   Q 192.61 321.45 190.00 319.89   C 187.58 318.44 185.89 314.84 183.34 313.38   Q 181.92 312.57 177.78 310.88   A 27.21 26.78 71.2 0 1 174.06 309.01   L 157.08 298.74   A 0.88 0.87 57.9 0 1 157.45 297.12   L 167.01 296.22   Q 178.92 303.21 191.01 309.98   Q 204.58 317.58 211.36 319.35   Q 222.51 322.27 234.27 320.24   Q 243.69 318.61 252.29 313.02   C 258.43 309.45 265.16 305.96 270.75 302.42   Q 276.71 298.64 282.55 295.87   Q 286.96 293.77 288.71 298.09   C 291.18 304.17 287.92 309.52 285.46 315.14   C 281.65 323.86 284.47 336.14 295.19 337.83   C 302.02 338.91 308.71 336.81 311.78 330.45   A 4.71 4.69 -26.4 0 0 312.17 329.30   C 313.78 321.08 309.81 312.51 306.96 305.25   Q 305.52 301.57 306.32 294.31   Q 308.98 283.46 317.78 275.80   Q 321.70 272.39 323.60 270.84   C 331.08 264.76 333.87 254.42 333.59 245.00   Q 333.20 232.00 333.59 210.19   C 333.76 200.47 332.51 190.47 327.18 183.09   Q 324.04 178.72 317.72 175.02   Q 292.10 160.03 261.18 142.84   C 255.60 139.74 246.80 134.26 240.15 130.54   Q 220.48 119.55 211.17 114.06   Q 199.27 107.04 195.35 105.87   C 179.62 101.17 164.37 100.91 149.95 109.46   Q 137.21 117.02 126.45 122.87   C 117.52 127.73 108.43 133.23 99.29 138.21   Q 90.20 143.37 81.22 148.72   Q 77.13 151.15 73.76 154.50   Q 70.85 151.26 68.75 147.56   C 63.66 138.53 71.67 131.03 78.67 126.29   Q 85.88 121.42 92.75 118.18   Q 126.80 102.17 161.59 97.26   C 179.33 94.75 195.82 96.65 211.19 104.63   C 222.06 110.27 231.65 117.18 241.37 122.72   C 248.32 126.68 257.75 130.49 266.17 133.99   Q 281.35 140.32 287.38 154.58   A 2.34 2.31 6.8 0 0 288.15 155.55   C 294.48 160.18 303.21 165.23 311.28 166.37   A 2.81 2.70 63.8 0 1 312.33 166.75   Q 322.80 173.13 328.59 182.05   Q 331.92 187.18 334.02 194.56   C 335.32 199.14 335.31 204.69 335.87 208.39   A 2.06 2.04 -68.2 0 0 336.26 209.31   Q 340.18 214.61 343.68 218.11   C 350.27 224.70 359.94 227.85 368.06 221.73   C 377.37 214.72 377.94 198.13 378.37 187.22   C 379.14 168.06 379.06 151.28 378.47 136.74   C 377.98 124.43 378.69 106.80 378.33 94.07   Q 378.11 86.53 376.75 71.86   Q 383.21 87.16 383.22 100.50   Q 383.33 214.96 383.36 337.00   Q 383.36 359.48 371.96 378.46   C 361.53 395.82 342.56 408.30 322.85 412.48   Q 315.94 413.95 297.31 413.95   Q 140.83 413.94 105.00 414.06   C 94.22 414.10 84.51 414.29 75.22 412.05   Q 64.94 409.57 58.32 406.44   C 36.01 395.88 20.23 373.70 16.29 349.47   Q 15.25 343.05 15.30 318.43   Q 15.42 253.76 15.38 120.38   Q 15.38 96.12 16.56 89.23   C 22.00 57.69 46.59 34.17 78.05 28.59   Q 83.57 27.61 110.02 27.67   Q 130.70 27.72 312.00 27.68   Q 320.24 27.68 330.90 30.95   Z"
     id="path65"
     style="fill:#11181f;fill-opacity:1" />
  <path
     fill="#11181f"
     d="   M 376.75 71.86   Q 378.11 86.53 378.33 94.07   C 378.69 106.80 377.98 124.43 378.47 136.74   C 379.06 151.28 379.14 168.06 378.37 187.22   C 377.94 198.13 377.37 214.72 368.06 221.73   C 359.94 227.85 350.27 224.70 343.68 218.11   Q 340.18 214.61 336.26 209.31   A 2.06 2.04 -68.2 0 1 335.87 208.39   C 335.31 204.69 335.32 199.14 334.02 194.56   Q 331.92 187.18 328.59 182.05   Q 322.80 173.13 312.33 166.75   A 2.81 2.70 63.8 0 0 311.28 166.37   C 303.21 165.23 294.48 160.18 288.15 155.55   A 2.34 2.31 6.8 0 1 287.38 154.58   Q 281.35 140.32 266.17 133.99   C 257.75 130.49 248.32 126.68 241.37 122.72   C 231.65 117.18 222.06 110.27 211.19 104.63   C 195.82 96.65 179.33 94.75 161.59 97.26   Q 126.80 102.17 92.75 118.18   Q 85.88 121.42 78.67 126.29   C 71.67 131.03 63.66 138.53 68.75 147.56   Q 70.85 151.26 73.76 154.50   C 65.43 163.83 64.90 175.32 65.49 187.27   Q 65.33 201.64 65.50 216.12   Q 65.59 224.53 66.75 228.52   C 68.48 234.50 72.44 241.91 77.85 245.16   Q 95.26 255.63 124.25 271.78   C 138.57 279.77 152.77 288.03 167.01 296.22   L 157.45 297.12   A 0.88 0.87 57.9 0 0 157.08 298.74   L 174.06 309.01   A 27.21 26.78 71.2 0 0 177.78 310.88   Q 181.92 312.57 183.34 313.38   C 185.89 314.84 187.58 318.44 190.00 319.89   Q 192.61 321.45 196.42 322.22   A 0.59 0.59 0.0 0 1 196.89 322.77   Q 197.52 333.99 200.08 339.94   C 203.22 347.22 213.59 363.65 223.67 358.44   Q 227.13 356.65 230.18 353.22   Q 236.53 346.09 242.87 341.20   Q 260.37 327.74 278.75 338.87   Q 280.91 340.18 292.96 347.94   Q 301.37 353.36 312.01 355.98   C 318.43 357.55 327.35 358.43 333.07 355.61   C 335.40 354.46 335.09 352.61 333.17 351.41   C 327.64 347.96 317.19 346.78 319.38 337.00   C 321.22 328.80 322.06 322.96 319.01 314.71   Q 317.07 309.50 316.08 304.95   C 314.08 295.84 318.82 292.10 326.00 288.68   C 332.82 285.42 336.65 282.37 337.59 274.18   Q 338.56 265.69 340.51 259.24   C 345.43 242.98 360.38 250.46 367.27 259.77   C 373.94 268.78 374.63 280.19 374.92 291.19   Q 375.46 311.72 375.18 336.20   Q 375.10 343.29 373.48 352.54   C 372.20 359.85 367.91 365.18 361.40 370.67   Q 345.64 383.96 340.66 387.50   C 332.49 393.31 320.83 398.21 311.13 401.84   Q 291.97 409.00 272.24 409.38   Q 258.22 409.64 230.44 408.69   Q 219.28 408.31 203.81 408.61   C 185.82 408.97 168.91 408.54 149.78 409.28   C 132.25 409.96 109.48 411.00 94.03 401.79   Q 84.51 396.11 79.51 393.49   C 72.79 389.97 65.53 388.95 56.43 387.99   Q 42.55 386.53 35.80 374.43   Q 27.87 360.21 24.74 343.15   Q 23.58 336.84 23.90 309.86   Q 24.45 264.78 24.50 262.00   Q 24.64 252.97 22.87 215.97   C 22.54 209.05 22.32 201.19 22.41 194.48   Q 23.21 136.58 23.28 97.51   Q 23.31 81.07 34.39 69.30   C 45.16 57.87 56.44 47.28 69.28 40.18   C 77.31 35.73 84.81 35.82 95.06 36.64   Q 114.83 38.23 123.14 37.99   Q 150.27 37.20 165.03 36.87   C 178.98 36.56 190.35 36.71 202.58 39.16   C 212.56 41.15 220.94 43.09 230.40 42.03   C 236.80 41.31 246.78 38.78 254.05 38.18   Q 267.25 37.09 280.38 37.35   Q 301.83 37.79 320.79 37.50   C 325.26 37.43 331.26 36.82 330.90 30.95   Q 362.95 41.69 376.75 71.86   Z"
     id="path66" />
  <path
     fill="#bd8053"
     d="   M 306.32 294.31   L 303.55 311.42   Q 300.39 304.97 300.34 299.75   Q 300.24 287.92 308.57 276.29   Q 312.07 271.41 319.57 265.78   Q 324.12 262.37 325.67 257.03   Q 326.71 253.44 326.67 246.30   Q 326.56 227.18 326.57 208.25   Q 326.58 205.10 326.39 201.97   Q 326.06 197.64 325.22 193.36   C 324.10 187.65 320.46 183.95 315.33 181.18   C 302.08 174.03 290.61 166.87 274.66 157.87   C 252.76 145.51 227.94 130.98 202.09 116.41   Q 194.65 112.22 190.51 110.91   Q 176.05 106.30 161.87 110.98   C 156.41 112.79 150.16 116.92 144.79 120.23   L 130.16 128.29   A 0.30 0.30 0.0 0 0 130.16 128.82   Q 153.51 142.20 181.14 157.74   C 182.99 158.78 186.50 161.05 188.51 161.11   Q 204.45 161.56 205.81 161.59   C 207.09 161.61 209.54 161.99 210.54 162.56   Q 223.11 169.71 224.42 170.36   Q 227.30 171.78 227.31 175.24   Q 227.36 187.14 227.16 196.72   A 1.24 1.23 -74.8 0 0 227.78 197.81   Q 248.23 209.42 271.58 223.19   Q 276.46 226.06 279.69 231.72   L 281.37 235.37   Q 280.08 234.17 279.74 233.30   A 0.49 0.49 0.0 0 0 279.28 232.98   L 278.51 232.98   A 0.33 0.33 0.0 0 0 278.18 233.37   L 278.74 236.76   Q 277.90 232.87 275.34 230.19   C 274.09 228.78 272.78 227.38 271.19 226.33   C 267.56 223.92 263.36 221.14 259.97 219.28   Q 241.78 209.31 227.15 199.94   A 4.70 4.66 61.7 0 0 224.68 199.19   Q 207.94 198.89 198.69 199.14   C 196.05 199.21 194.19 198.51 192.07 197.20   Q 183.78 192.07 166.97 182.35   Q 164.98 181.20 163.18 179.31   A 1.60 1.58 -67.0 0 1 162.74 178.21   L 162.74 172.83   A 1.40 1.39 -75.4 0 0 162.03 171.61   L 109.24 141.26   A 1.43 1.37 -26.3 0 0 108.70 141.09   Q 107.48 140.98 106.28 141.69   L 99.29 138.21   C 108.43 133.23 117.52 127.73 126.45 122.87   Q 137.21 117.02 149.95 109.46   C 164.37 100.91 179.62 101.17 195.35 105.87   Q 199.27 107.04 211.17 114.06   Q 220.48 119.55 240.15 130.54   C 246.80 134.26 255.60 139.74 261.18 142.84   Q 292.10 160.03 317.72 175.02   Q 324.04 178.72 327.18 183.09   C 332.51 190.47 333.76 200.47 333.59 210.19   Q 333.20 232.00 333.59 245.00   C 333.87 254.42 331.08 264.76 323.60 270.84   Q 321.70 272.39 317.78 275.80   Q 308.98 283.46 306.32 294.31   Z   M 111.80 138.75   A 0.63 0.63 0.0 0 0 111.80 139.84   L 163.49 169.68   A 2.85 2.85 0.0 0 1 164.91 172.02   C 165.11 176.42 164.51 178.89 168.64 180.89   Q 182.73 187.71 195.20 196.15   A 5.02 4.96 -27.7 0 0 197.99 197.00   L 224.25 197.00   A 0.48 0.47 0.0 0 0 224.73 196.53   L 224.73 174.90   A 3.19 3.19 0.0 0 0 222.93 172.03   Q 217.39 169.32 210.99 165.31   C 208.22 163.57 206.46 163.05 203.25 163.07   Q 194.16 163.12 189.51 162.98   C 185.16 162.85 181.61 160.58 177.16 158.11   Q 155.17 145.86 128.42 130.55   A 2.78 2.76 -44.8 0 0 125.65 130.55   L 121.52 132.94   A 0.83 0.82 44.9 0 0 121.53 134.37   L 180.38 167.99   A 0.93 0.90 -32.6 0 0 180.92 168.10   C 184.31 167.71 189.84 167.04 189.78 171.76   Q 189.76 173.34 188.23 173.99   Q 182.39 176.49 178.85 173.04   Q 178.15 172.36 178.53 170.47   A 1.00 0.98 -69.9 0 0 178.05 169.41   L 119.80 135.78   A 2.84 2.82 -44.8 0 0 116.95 135.78   L 111.80 138.75   Z   M 187.1276 171.1037   A 3.29 1.75 -2.2 0 0 183.7728 169.4813   A 3.29 1.75 -2.2 0 0 180.5524 171.3563   A 3.29 1.75 -2.2 0 0 183.9072 172.9787   A 3.29 1.75 -2.2 0 0 187.1276 171.1037   Z"
     id="path67" />
  <path
     fill="#f1dd95"
     d="   M 326.39 201.97   Q 324.38 204.17 322.46 206.31   Q 320.22 208.79 318.15 210.24   Q 312.48 214.21 306.12 216.29   L 301.21 210.44   Q 306.28 207.04 311.37 203.64   C 315.83 200.66 316.63 194.69 314.86 189.97   C 313.76 187.07 309.74 183.53 307.48 182.27   Q 299.10 177.65 292.70 174.79   Q 288.01 172.69 286.77 171.86   Q 286.34 171.57 280.79 168.67   Q 270.43 163.27 248.50 150.03   Q 246.59 148.87 229.26 139.82   C 226.74 138.50 224.04 136.54 222.17 135.39   Q 209.91 127.88 194.83 120.47   Q 189.66 117.92 185.06 117.01   Q 173.56 114.74 162.22 117.01   C 157.50 117.95 156.46 118.62 151.60 119.35   Q 148.57 119.80 146.13 121.26   A 0.58 0.57 -58.3 0 1 145.76 121.35   Q 144.90 121.29 144.79 120.23   C 150.16 116.92 156.41 112.79 161.87 110.98   Q 176.05 106.30 190.51 110.91   Q 194.65 112.22 202.09 116.41   C 227.94 130.98 252.76 145.51 274.66 157.87   C 290.61 166.87 302.08 174.03 315.33 181.18   C 320.46 183.95 324.10 187.65 325.22 193.36   Q 326.06 197.64 326.39 201.97   Z"
     id="path68" />
  <path
     fill="#edca74"
     d="   M 301.21 210.44   L 269.15 191.57   A 2.48 2.47 15.4 0 1 267.93 189.44   L 267.93 182.45   A 0.87 0.86 -15.0 0 1 268.37 181.70   C 270.62 180.45 272.72 178.56 271.09 175.93   A 2.01 1.97 86.0 0 0 270.22 175.16   C 266.33 173.40 260.87 173.57 260.30 178.91   A 1.29 1.26 -63.9 0 0 260.63 179.91   Q 262.04 181.48 264.49 182.16   A 0.89 0.89 0.0 0 1 265.14 183.02   L 265.14 190.91   A 2.58 2.57 16.3 0 0 266.33 193.08   C 276.29 199.44 287.02 204.81 297.24 210.76   Q 300.46 212.63 302.80 216.16   Q 300.50 219.50 297.25 220.97   C 293.31 215.63 290.13 214.07 283.21 210.00   Q 270.15 202.30 252.50 192.18   A 2.42 2.41 13.7 0 1 251.29 190.20   C 250.78 180.16 251.24 170.31 250.88 163.39   Q 250.76 161.01 249.17 160.05   Q 236.48 152.45 223.72 145.94   A 0.60 0.60 0.0 0 1 223.41 145.29   Q 224.11 142.06 220.81 140.95   Q 216.80 139.60 213.47 142.00   A 1.63 1.61 80.9 0 0 212.89 142.81   C 211.34 147.61 217.88 147.43 220.97 147.31   A 3.53 3.42 58.2 0 1 222.85 147.78   L 247.10 161.78   A 2.64 2.61 15.1 0 1 248.42 164.05   L 248.42 190.93   A 2.94 2.93 -71.3 0 0 249.57 193.26   Q 250.94 194.31 253.00 195.51   Q 270.07 205.48 288.03 215.72   Q 291.10 217.46 294.03 221.78   Q 293.69 223.58 291.94 225.00   C 290.01 226.57 288.44 225.76 286.85 224.29   Q 283.80 220.03 278.98 217.26   Q 260.48 206.63 240.15 195.07   A 1.35 1.35 0.0 0 1 239.66 194.58   Q 238.90 193.23 238.89 191.25   Q 238.85 180.23 238.88 169.22   Q 238.89 165.61 235.62 164.12   Q 230.04 161.57 221.05 155.96   C 216.59 153.17 209.29 154.09 204.14 154.08   A 1.01 0.98 58.9 0 1 203.65 153.95   L 189.64 146.12   A 0.81 0.81 0.0 0 1 189.24 145.31   C 190.44 136.96 174.67 139.60 178.61 145.69   A 2.31 2.29 88.7 0 0 179.39 146.44   C 181.29 147.56 184.65 147.39 186.74 147.62   A 7.16 7.12 -26.5 0 1 189.54 148.55   Q 194.74 151.62 200.37 154.69   C 206.01 157.75 213.47 154.19 218.82 157.43   Q 226.08 161.81 234.52 166.33   A 3.34 3.33 -76.1 0 1 236.29 169.28   Q 236.28 186.69 236.64 194.28   Q 236.72 195.90 238.71 197.04   Q 259.81 209.11 279.55 221.22   Q 283.03 223.35 285.19 226.67   Q 283.54 230.31 279.69 231.72   Q 276.46 226.06 271.58 223.19   Q 248.23 209.42 227.78 197.81   A 1.24 1.23 -74.8 0 1 227.16 196.72   Q 227.36 187.14 227.31 175.24   Q 227.30 171.78 224.42 170.36   Q 223.11 169.71 210.54 162.56   C 209.54 161.99 207.09 161.61 205.81 161.59   Q 204.45 161.56 188.51 161.11   C 186.50 161.05 182.99 158.78 181.14 157.74   Q 153.51 142.20 130.16 128.82   A 0.30 0.30 0.0 0 1 130.16 128.29   L 144.79 120.23   Q 144.90 121.29 145.76 121.35   A 0.58 0.57 -58.3 0 0 146.13 121.26   Q 148.57 119.80 151.60 119.35   C 156.46 118.62 157.50 117.95 162.22 117.01   Q 173.56 114.74 185.06 117.01   Q 189.66 117.92 194.83 120.47   Q 209.91 127.88 222.17 135.39   C 224.04 136.54 226.74 138.50 229.26 139.82   Q 246.59 148.87 248.50 150.03   Q 270.43 163.27 280.79 168.67   Q 286.34 171.57 286.77 171.86   Q 288.01 172.69 292.70 174.79   Q 299.10 177.65 307.48 182.27   C 309.74 183.53 313.76 187.07 314.86 189.97   C 316.63 194.69 315.83 200.66 311.37 203.64   Q 306.28 207.04 301.21 210.44   Z"
     id="path69" />
  <path
     fill="#edca74"
     d="   M 111.80 138.75   L 116.95 135.78   A 2.84 2.82 -44.8 0 1 119.80 135.78   L 178.05 169.41   A 1.00 0.98 -69.9 0 1 178.53 170.47   Q 178.15 172.36 178.85 173.04   Q 182.39 176.49 188.23 173.99   Q 189.76 173.34 189.78 171.76   C 189.84 167.04 184.31 167.71 180.92 168.10   A 0.93 0.90 -32.6 0 1 180.38 167.99   L 121.53 134.37   A 0.83 0.82 44.9 0 1 121.52 132.94   L 125.65 130.55   A 2.78 2.76 -44.8 0 1 128.42 130.55   Q 155.17 145.86 177.16 158.11   C 181.61 160.58 185.16 162.85 189.51 162.98   Q 194.16 163.12 203.25 163.07   C 206.46 163.05 208.22 163.57 210.99 165.31   Q 217.39 169.32 222.93 172.03   A 3.19 3.19 0.0 0 1 224.73 174.90   L 224.73 196.53   A 0.48 0.47 -0.0 0 1 224.25 197.00   L 197.99 197.00   A 5.02 4.96 -27.7 0 1 195.20 196.15   Q 182.73 187.71 168.64 180.89   C 164.51 178.89 165.11 176.42 164.91 172.02   A 2.85 2.85 0.0 0 0 163.49 169.68   L 111.80 139.84   A 0.63 0.63 0.0 0 1 111.80 138.75   Z"
     id="path70" />
  <path
     fill="#a86c41"
     d="   M 99.29 138.21   L 106.28 141.69   Q 96.96 147.02 87.72 152.52   Q 82.46 155.65 80.14 157.62   Q 75.88 161.24 73.61 167.25   Q 71.11 177.27 72.04 188.57   C 70.34 185.35 68.29 185.18 65.49 187.27   C 64.90 175.32 65.43 163.83 73.76 154.50   Q 77.13 151.15 81.22 148.72   Q 90.20 143.37 99.29 138.21   Z"
     id="path71" />
  <path
     fill="#bd8053"
     d="   M 286.85 224.29   Q 291.17 229.51 291.18 236.12   Q 291.22 258.12 290.83 282.88   A 1.10 1.10 0.0 0 1 289.54 283.95   L 289.48 283.94   A 1.54 1.54 0.0 0 1 288.20 282.43   Q 288.12 268.50 288.17 255.40   C 288.19 249.97 288.57 241.64 288.25 234.25   Q 288.04 229.69 285.19 226.67   Q 283.03 223.35 279.55 221.22   Q 259.81 209.11 238.71 197.04   Q 236.72 195.90 236.64 194.28   Q 236.28 186.69 236.29 169.28   A 3.34 3.33 -76.1 0 0 234.52 166.33   Q 226.08 161.81 218.82 157.43   C 213.47 154.19 206.01 157.75 200.37 154.69   Q 194.74 151.62 189.54 148.55   A 7.16 7.12 -26.5 0 0 186.74 147.62   C 184.65 147.39 181.29 147.56 179.39 146.44   A 2.31 2.29 88.7 0 1 178.61 145.69   C 174.67 139.60 190.44 136.96 189.24 145.31   A 0.81 0.81 0.0 0 0 189.64 146.12   L 203.65 153.95   A 1.01 0.98 58.9 0 0 204.14 154.08   C 209.29 154.09 216.59 153.17 221.05 155.96   Q 230.04 161.57 235.62 164.12   Q 238.89 165.61 238.88 169.22   Q 238.85 180.23 238.89 191.25   Q 238.90 193.23 239.66 194.58   A 1.35 1.35 0.0 0 0 240.15 195.07   Q 260.48 206.63 278.98 217.26   Q 283.80 220.03 286.85 224.29   Z   M 180.2522 143.6644   A 3.60 1.60 -178.0 0 0 183.7942 145.3890   A 3.60 1.60 -178.0 0 0 187.4478 143.9156   A 3.60 1.60 -178.0 0 0 183.9058 142.1910   A 3.60 1.60 -178.0 0 0 180.2522 143.6644   Z"
     id="path72" />
  <path
     fill="#bd8053"
     d="   M 297.25 220.97   C 299.09 224.73 299.23 229.65 299.28 233.15   A 0.63 0.62 3.7 0 0 299.83 233.77   C 305.18 234.51 302.40 246.10 295.66 243.36   A 2.73 2.71 -75.2 0 1 294.00 240.49   Q 294.45 237.11 296.73 234.46   A 1.51 1.48 64.9 0 0 297.09 233.43   Q 297.08 233.22 296.60 228.52   Q 296.21 224.62 294.03 221.78   Q 291.10 217.46 288.03 215.72   Q 270.07 205.48 253.00 195.51   Q 250.94 194.31 249.57 193.26   A 2.94 2.93 -71.3 0 1 248.42 190.93   L 248.42 164.05   A 2.64 2.61 15.1 0 0 247.10 161.78   L 222.85 147.78   A 3.53 3.42 58.2 0 0 220.97 147.31   C 217.88 147.43 211.34 147.61 212.89 142.81   A 1.63 1.61 80.9 0 1 213.47 142.00   Q 216.80 139.60 220.81 140.95   Q 224.11 142.06 223.41 145.29   A 0.60 0.60 0.0 0 0 223.72 145.94   Q 236.48 152.45 249.17 160.05   Q 250.76 161.01 250.88 163.39   C 251.24 170.31 250.78 180.16 251.29 190.20   A 2.42 2.41 13.7 0 0 252.50 192.18   Q 270.15 202.30 283.21 210.00   C 290.13 214.07 293.31 215.63 297.25 220.97   Z   M 222.06 144.01   A 3.34 1.70 0.0 0 0 218.72 142.31   A 3.34 1.70 0.0 0 0 215.38 144.01   A 3.34 1.70 0.0 0 0 218.72 145.71   A 3.34 1.70 0.0 0 0 222.06 144.01   Z   M 299.7139 236.4079   A 2.58 1.78 -59.9 0 0 296.8800 237.7473   A 2.58 1.78 -59.9 0 0 297.1261 240.8721   A 2.58 1.78 -59.9 0 0 299.9600 239.5327   A 2.58 1.78 -59.9 0 0 299.7139 236.4079   Z"
     id="path73" />
  <path
     fill="#edca74"
     d="   M 275.34 230.19   Q 274.76 234.56 270.11 235.36   Q 267.98 230.81 263.95 228.53   Q 242.04 216.14 229.00 208.33   Q 226.60 206.88 222.27 206.88   Q 195.52 206.85 192.44 206.86   A 3.42 3.37 59.4 0 1 190.70 206.40   L 159.67 188.48   A 1.83 1.82 -78.4 0 1 158.76 187.09   C 158.18 181.38 150.42 181.36 147.84 185.53   A 2.15 2.12 33.1 0 0 148.47 188.41   Q 150.78 189.99 155.53 189.60   A 3.83 3.82 -30.9 0 1 157.89 190.19   Q 172.87 199.75 188.85 208.19   A 8.11 7.98 -30.4 0 0 192.53 209.12   Q 207.51 209.24 223.75 209.53   Q 226.56 209.58 228.00 210.51   Q 239.15 217.77 251.57 224.21   C 255.90 226.45 259.73 229.13 263.91 232.09   Q 266.90 234.21 268.07 237.18   Q 264.41 241.32 261.23 240.22   Q 258.94 235.89 254.67 233.33   Q 242.92 226.31 230.92 219.30   Q 227.49 217.29 223.87 217.16   Q 211.13 216.68 191.43 217.33   C 189.12 217.41 186.61 217.15 184.98 216.06   Q 173.72 208.55 167.33 204.81   A 0.78 0.77 21.0 0 1 166.96 203.99   Q 167.70 200.10 163.66 199.40   C 160.77 198.90 155.29 199.57 155.59 203.51   C 155.82 206.45 161.58 206.85 163.41 206.45   A 3.03 3.01 -34.7 0 1 165.66 206.85   Q 169.63 209.35 183.12 217.50   C 185.00 218.63 186.98 219.28 188.98 219.29   Q 191.42 219.31 224.25 219.71   Q 226.66 219.74 229.92 221.59   Q 238.76 226.62 247.63 231.86   Q 251.84 234.35 255.69 237.64   Q 249.68 239.43 244.17 241.98   Q 238.05 244.82 235.64 245.23   C 226.74 246.76 216.15 245.45 208.12 242.67   C 202.46 240.72 190.55 234.76 180.91 229.76   Q 167.64 222.88 157.95 219.01   Q 155.22 217.92 139.70 210.02   C 133.39 206.81 128.70 202.62 122.21 199.40   C 118.00 197.31 112.59 194.08 110.08 194.20   A 0.63 0.62 1.5 0 0 109.48 194.76   L 109.36 195.78   Q 96.30 188.03 83.31 180.29   Q 78.39 177.37 76.74 175.07   Q 74.43 171.86 73.61 167.25   Q 75.88 161.24 80.14 157.62   Q 82.46 155.65 87.72 152.52   Q 96.96 147.02 106.28 141.69   Q 107.48 140.98 108.70 141.09   A 1.43 1.37 -26.3 0 1 109.24 141.26   L 162.03 171.61   A 1.40 1.39 -75.4 0 1 162.74 172.83   L 162.74 178.21   A 1.60 1.58 -67.0 0 0 163.18 179.31   Q 164.98 181.20 166.97 182.35   Q 183.78 192.07 192.07 197.20   C 194.19 198.51 196.05 199.21 198.69 199.14   Q 207.94 198.89 224.68 199.19   A 4.70 4.66 61.7 0 1 227.15 199.94   Q 241.78 209.31 259.97 219.28   C 263.36 221.14 267.56 223.92 271.19 226.33   C 272.78 227.38 274.09 228.78 275.34 230.19   Z"
     id="path74" />
  <ellipse
     fill="#edca74"
     cx="0.00"
     cy="0.00"
     transform="translate(183.85,143.79) rotate(-178.0)"
     rx="3.60"
     ry="1.60"
     id="ellipse74" />
  <ellipse
     fill="#edca74"
     cx="218.72"
     cy="144.01"
     rx="3.34"
     ry="1.70"
     id="ellipse75" />
  <path
     fill="#cc8d3e"
     d="   M 73.61 167.25   Q 74.43 171.86 76.74 175.07   Q 78.39 177.37 83.31 180.29   Q 96.30 188.03 109.36 195.78   L 204.93 249.75   Q 206.33 252.97 208.44 255.71   Q 212.18 260.54 212.56 261.23   C 217.50 270.23 218.55 280.82 216.87 291.11   Q 216.16 295.46 214.12 299.07   Q 213.12 300.82 208.85 304.41   Q 205.96 306.84 203.27 309.49   Q 194.11 303.59 184.43 298.19   Q 165.95 287.88 165.27 287.49   Q 138.52 272.06 107.88 255.13   C 100.81 251.23 92.37 246.03 85.76 242.03   C 78.44 237.62 74.81 233.81 73.20 226.04   Q 72.37 221.99 72.32 220.62   Q 71.75 204.46 72.04 188.57   Q 71.11 177.27 73.61 167.25   Z"
     id="path75" />
  <ellipse
     fill="#edca74"
     cx="0.00"
     cy="0.00"
     transform="translate(183.84,171.23) rotate(-2.2)"
     rx="3.29"
     ry="1.75"
     id="ellipse76" />
  <path
     fill="#bd8053"
     d="   M 301.21 210.44   L 306.12 216.29   Q 308.08 218.84 308.22 223.25   Q 308.58 234.99 308.58 238.26   Q 308.58 242.53 306.32 246.07   Q 301.52 253.57 299.62 256.66   A 3.12 3.12 0.0 0 0 299.16 258.29   L 299.16 277.40   A 1.24 1.22 84.3 0 1 298.18 278.61   L 297.69 278.71   A 0.85 0.84 84.0 0 1 296.67 277.88   L 296.67 257.79   A 2.46 2.26 56.6 0 1 296.79 257.04   C 298.32 252.51 301.37 249.02 303.97 245.24   Q 305.72 242.69 305.91 240.44   Q 306.40 234.55 305.84 225.25   Q 305.59 221.09 302.80 216.16   Q 300.46 212.63 297.24 210.76   C 287.02 204.81 276.29 199.44 266.33 193.08   A 2.58 2.57 16.3 0 1 265.14 190.91   L 265.14 183.02   A 0.89 0.89 0.0 0 0 264.49 182.16   Q 262.04 181.48 260.63 179.91   A 1.29 1.26 -63.9 0 1 260.30 178.91   C 260.87 173.57 266.33 173.40 270.22 175.16   A 2.01 1.97 86.0 0 1 271.09 175.93   C 272.72 178.56 270.62 180.45 268.37 181.70   A 0.87 0.86 -15.0 0 0 267.93 182.45   L 267.93 189.44   A 2.48 2.47 15.4 0 0 269.15 191.57   L 301.21 210.44   Z   M 263.1237 177.4692   A 3.09 1.62 -174.6 0 0 266.0475 179.3728   A 3.09 1.62 -174.6 0 0 269.2763 178.0508   A 3.09 1.62 -174.6 0 0 266.3525 176.1472   A 3.09 1.62 -174.6 0 0 263.1237 177.4692   Z"
     id="path76" />
  <ellipse
     fill="#edca74"
     cx="0.00"
     cy="0.00"
     transform="translate(266.20,177.76) rotate(-174.6)"
     rx="3.09"
     ry="1.62"
     id="ellipse77" />
  <path
     fill="#bd8053"
     d="   M 270.11 235.36   C 273.40 240.95 272.57 246.50 273.07 252.58   A 0.68 0.67 3.4 0 0 273.62 253.19   C 278.18 254.02 275.54 260.53 272.72 261.80   C 269.78 263.12 267.08 261.49 267.94 258.00   Q 268.36 256.30 269.91 254.61   A 2.02 2.02 0.0 0 0 270.45 253.26   C 270.51 248.26 270.64 242.18 268.07 237.18   Q 266.90 234.21 263.91 232.09   C 259.73 229.13 255.90 226.45 251.57 224.21   Q 239.15 217.77 228.00 210.51   Q 226.56 209.58 223.75 209.53   Q 207.51 209.24 192.53 209.12   A 8.11 7.98 -30.4 0 1 188.85 208.19   Q 172.87 199.75 157.89 190.19   A 3.83 3.82 -30.9 0 0 155.53 189.60   Q 150.78 189.99 148.47 188.41   A 2.15 2.12 33.1 0 1 147.84 185.53   C 150.42 181.36 158.18 181.38 158.76 187.09   A 1.83 1.82 -78.4 0 0 159.67 188.48   L 190.70 206.40   A 3.42 3.37 59.4 0 0 192.44 206.86   Q 195.52 206.85 222.27 206.88   Q 226.60 206.88 229.00 208.33   Q 242.04 216.14 263.95 228.53   Q 267.98 230.81 270.11 235.36   Z   M 156.3372 186.0564   A 3.19 1.63 -2.4 0 0 153.0817 184.5614   A 3.19 1.63 -2.4 0 0 149.9628 186.3236   A 3.19 1.63 -2.4 0 0 153.2183 187.8186   A 3.19 1.63 -2.4 0 0 156.3372 186.0564   Z   M 273.3390 256.5058   A 2.06 1.51 -45.3 0 0 270.8167 256.9079   A 2.06 1.51 -45.3 0 0 270.4410 259.4342   A 2.06 1.51 -45.3 0 0 272.9633 259.0321   A 2.06 1.51 -45.3 0 0 273.3390 256.5058   Z"
     id="path77" />
  <path
     fill="#945629"
     d="   M 72.04 188.57   Q 71.75 204.46 72.32 220.62   Q 72.37 221.99 73.20 226.04   C 74.81 233.81 78.44 237.62 85.76 242.03   C 92.37 246.03 100.81 251.23 107.88 255.13   Q 138.52 272.06 165.27 287.49   Q 165.95 287.88 184.43 298.19   Q 194.11 303.59 203.27 309.49   Q 211.00 313.29 219.88 314.13   Q 231.70 315.25 242.09 311.25   Q 242.38 310.92 242.94 310.77   L 252.29 313.02   Q 243.69 318.61 234.27 320.24   Q 222.51 322.27 211.36 319.35   Q 204.58 317.58 191.01 309.98   Q 178.92 303.21 167.01 296.22   C 152.77 288.03 138.57 279.77 124.25 271.78   Q 95.26 255.63 77.85 245.16   C 72.44 241.91 68.48 234.50 66.75 228.52   Q 65.59 224.53 65.50 216.12   Q 65.33 201.64 65.49 187.27   C 68.29 185.18 70.34 185.35 72.04 188.57   Z"
     id="path78" />
  <ellipse
     fill="#edca74"
     cx="0.00"
     cy="0.00"
     transform="translate(153.15,186.19) rotate(-2.4)"
     rx="3.19"
     ry="1.63"
     id="ellipse78" />
  <path
     fill="#f1dd95"
     d="   M 255.69 237.64   L 259.82 242.36   Q 257.24 243.19 255.93 244.46   C 251.24 246.93 246.26 250.11 241.84 251.83   Q 223.38 259.05 204.93 249.75   L 109.36 195.78   L 109.48 194.76   A 0.63 0.62 1.5 0 1 110.08 194.20   C 112.59 194.08 118.00 197.31 122.21 199.40   C 128.70 202.62 133.39 206.81 139.70 210.02   Q 155.22 217.92 157.95 219.01   Q 167.64 222.88 180.91 229.76   C 190.55 234.76 202.46 240.72 208.12 242.67   C 216.15 245.45 226.74 246.76 235.64 245.23   Q 238.05 244.82 244.17 241.98   Q 249.68 239.43 255.69 237.64   Z"
     id="path79" />
  <path
     fill="#a86c41"
     d="   M 261.23 240.22   Q 264.16 243.82 264.07 248.50   Q 263.95 254.93 264.14 261.38   C 264.27 265.77 268.11 268.00 271.13 270.59   Q 272.78 272.01 272.79 273.77   Q 272.85 283.90 273.18 292.63   A 0.20 0.20 0.0 0 0 273.46 292.80   L 278.86 290.71   A 0.40 0.40 0.0 0 0 279.11 290.34   Q 279.30 273.71 279.14 257.04   C 279.10 252.07 279.86 243.63 278.74 236.76   L 278.18 233.37   A 0.33 0.33 0.0 0 1 278.51 232.98   L 279.28 232.98   A 0.49 0.49 0.0 0 1 279.74 233.30   Q 280.08 234.17 281.37 235.37   Q 282.16 245.44 282.03 251.00   Q 281.62 269.80 281.73 288.73   A 0.79 0.79 0.0 0 0 282.51 289.52   C 292.52 289.68 296.81 298.24 294.58 307.26   C 293.72 310.76 291.25 314.28 290.20 317.70   C 287.88 325.23 290.95 333.75 300.24 332.36   Q 304.95 331.65 306.46 327.19   C 308.11 322.31 305.60 316.14 303.55 311.42   L 306.32 294.31   Q 305.52 301.57 306.96 305.25   C 309.81 312.51 313.78 321.08 312.17 329.30   A 4.71 4.69 -26.4 0 1 311.78 330.45   C 308.71 336.81 302.02 338.91 295.19 337.83   C 284.47 336.14 281.65 323.86 285.46 315.14   C 287.92 309.52 291.18 304.17 288.71 298.09   Q 286.96 293.77 282.55 295.87   Q 276.71 298.64 270.75 302.42   C 265.16 305.96 258.43 309.45 252.29 313.02   L 242.94 310.77   L 269.18 295.67   A 2.32 2.30 -15.1 0 0 270.34 293.67   L 270.34 275.14   A 2.40 2.38 19.8 0 0 269.46 273.29   Q 266.80 271.08 262.65 267.07   Q 260.50 265.00 260.77 263.25   Q 262.46 251.96 259.82 242.36   L 255.69 237.64   Q 251.84 234.35 247.63 231.86   Q 238.76 226.62 229.92 221.59   Q 226.66 219.74 224.25 219.71   Q 191.42 219.31 188.98 219.29   C 186.98 219.28 185.00 218.63 183.12 217.50   Q 169.63 209.35 165.66 206.85   A 3.03 3.01 -34.7 0 0 163.41 206.45   C 161.58 206.85 155.82 206.45 155.59 203.51   C 155.29 199.57 160.77 198.90 163.66 199.40   Q 167.70 200.10 166.96 203.99   A 0.78 0.77 21.0 0 0 167.33 204.81   Q 173.72 208.55 184.98 216.06   C 186.61 217.15 189.12 217.41 191.43 217.33   Q 211.13 216.68 223.87 217.16   Q 227.49 217.29 230.92 219.30   Q 242.92 226.31 254.67 233.33   Q 258.94 235.89 261.23 240.22   Z   M 158.6512 202.7068   A 2.98 1.62 -178.4 0 0 161.5848 204.4094   A 2.98 1.62 -178.4 0 0 164.6088 202.8732   A 2.98 1.62 -178.4 0 0 161.6752 201.1706   A 2.98 1.62 -178.4 0 0 158.6512 202.7068   Z"
     id="path80" />
  <ellipse
     fill="#edca74"
     cx="0.00"
     cy="0.00"
     transform="translate(161.63,202.79) rotate(-178.4)"
     rx="2.98"
     ry="1.62"
     id="ellipse80" />
  <path
     fill="#e9b862"
     d="   M 278.74 236.76   C 279.86 243.63 279.10 252.07 279.14 257.04   Q 279.30 273.71 279.11 290.34   A 0.40 0.40 0.0 0 1 278.86 290.71   L 273.46 292.80   A 0.20 0.20 0.0 0 1 273.18 292.63   Q 272.85 283.90 272.79 273.77   Q 272.78 272.01 271.13 270.59   C 268.11 268.00 264.27 265.77 264.14 261.38   Q 263.95 254.93 264.07 248.50   Q 264.16 243.82 261.23 240.22   Q 264.41 241.32 268.07 237.18   C 270.64 242.18 270.51 248.26 270.45 253.26   A 2.02 2.02 0.0 0 1 269.91 254.61   Q 268.36 256.30 267.94 258.00   C 267.08 261.49 269.78 263.12 272.72 261.80   C 275.54 260.53 278.18 254.02 273.62 253.19   A 0.68 0.67 3.4 0 1 273.07 252.58   C 272.57 246.50 273.40 240.95 270.11 235.36   Q 274.76 234.56 275.34 230.19   Q 277.90 232.87 278.74 236.76   Z"
     id="path82" />
  <ellipse
     fill="#e9b862"
     cx="0.00"
     cy="0.00"
     transform="translate(298.42,238.64) rotate(-59.9)"
     rx="2.58"
     ry="1.78"
     id="ellipse82" />
  <path
     fill="#e9b862"
     d="   M 242.94 310.77   Q 242.38 310.92 242.09 311.25   Q 234.55 305.02 234.03 295.20   Q 233.22 280.07 237.35 265.66   Q 240.59 254.37 251.28 248.58   A 2.96 2.91 23.7 0 1 252.02 248.30   Q 254.49 247.74 256.91 246.13   A 0.70 0.70 0.0 0 0 256.84 244.92   L 255.93 244.46   Q 257.24 243.19 259.82 242.36   Q 262.46 251.96 260.77 263.25   Q 260.50 265.00 262.65 267.07   Q 266.80 271.08 269.46 273.29   A 2.40 2.38 19.8 0 1 270.34 275.14   L 270.34 293.67   A 2.32 2.30 -15.1 0 1 269.18 295.67   L 242.94 310.77   Z"
     id="path83" />
  <path
     fill="#dba24e"
     d="   M 242.09 311.25   Q 231.70 315.25 219.88 314.13   Q 211.00 313.29 203.27 309.49   Q 205.96 306.84 208.85 304.41   Q 213.12 300.82 214.12 299.07   Q 216.16 295.46 216.87 291.11   C 218.55 280.82 217.50 270.23 212.56 261.23   Q 212.18 260.54 208.44 255.71   Q 206.33 252.97 204.93 249.75   Q 223.38 259.05 241.84 251.83   C 246.26 250.11 251.24 246.93 255.93 244.46   L 256.84 244.92   A 0.70 0.70 0.0 0 1 256.91 246.13   Q 254.49 247.74 252.02 248.30   A 2.96 2.91 23.7 0 0 251.28 248.58   Q 240.59 254.37 237.35 265.66   Q 233.22 280.07 234.03 295.20   Q 234.55 305.02 242.09 311.25   Z"
     id="path84" />
  <ellipse
     fill="#e9b862"
     cx="0.00"
     cy="0.00"
     transform="translate(271.89,257.97) rotate(-45.3)"
     rx="2.06"
     ry="1.51"
     id="ellipse84" />
  <path
     style="fill:#a86c41;fill-opacity:1;stroke:#a86c41;stroke-opacity:1"
     d="m 280.37644,296.3353 17.24429,-8.77722 7.14808,-10.79819 -27.25374,15.20877 z"
     id="path86"
     sodipodi:nodetypes="ccccc" />
  <path
     style="fill:#bd8053;fill-opacity:1;stroke:#bd8053;stroke-opacity:1"
     d="m 297.35108,287.60709 c 6.19118,-3.71341 12.09925,-6.57749 18.59638,-11.20878 l 5.92283,-5.41333 -5.73176,-1.46479 -4.96753,3.63012 -6.36863,3.56642 c -2.25025,3.63012 -2.89009,5.64258 -7.45129,10.89036 z"
     id="path87"
     sodipodi:nodetypes="ccccccc" />
  <path
     style="fill:#11181f;fill-opacity:1;stroke:#11181f;stroke-opacity:1"
     d="m 281.5912,296.81234 c 0,0 11.36614,-6.98117 25.84341,-13.69097 3.55187,-1.64619 6.49612,-3.86538 8.84785,-5.51333 5.72804,-4.01385 5.10813,-3.06616 5.16292,-3.17708 1.37633,-2.7862 5.3139,13.96022 5.3139,13.96022 l -5.49403,16.03174 -2.92714,8.15097 -2.38675,28.46084 -16.88737,2.02648 -19.40921,-4.00793 -1.35099,-21.07544 6.03442,-13.96022 z"
     id="path89"
     sodipodi:nodetypes="csssccccccccc" />
</svg>
